<svg width="15" height="15" viewBox="0 0 15 15" fill="none" xmlns="http://www.w3.org/2000/svg">
<path d="M7.5 0C5.51053 0 3.60336 0.789932 2.19673 2.1967C0.789961 3.60344 0 5.51064 0 7.49991C0 9.48917 0.789942 11.3965 2.19673 12.8031C3.60349 14.2099 5.51071 14.9998 7.5 14.9998C9.48929 14.9998 11.3966 14.2099 12.8033 12.8031C14.21 11.3964 15 9.48917 15 7.49991C14.9985 5.5112 14.2079 3.60406 12.8018 2.198C11.3957 0.79198 9.48873 0.00148967 7.5 0ZM8.01208 10.9135C7.87824 11.0524 7.69277 11.131 7.5 11.131C7.40326 11.131 7.30798 11.1099 7.22069 11.0691C7.1334 11.0335 7.05411 10.9804 6.98792 10.9135C6.8519 10.7782 6.77553 10.5942 6.77553 10.4014C6.77626 10.2094 6.85263 10.0254 6.98792 9.88934C7.05557 9.8246 7.13485 9.77223 7.22069 9.73441C7.49199 9.62312 7.80332 9.68422 8.01208 9.88934C8.079 9.95626 8.13137 10.0355 8.16701 10.1221C8.20629 10.2101 8.22593 10.3054 8.22447 10.4014C8.22447 10.5942 8.14809 10.7782 8.01208 10.9135ZM8.22447 7.49991C8.22447 7.89996 7.90005 8.22437 7.5 8.22437C7.09995 8.22437 6.77553 7.89996 6.77553 7.49991V4.59841C6.77407 4.40492 6.84972 4.21871 6.98574 4.08198C7.12176 3.94451 7.30653 3.86741 7.5 3.86741C7.69347 3.86741 7.87823 3.94451 8.01426 4.08198C8.15028 4.21873 8.22592 4.40494 8.22447 4.59841V7.49991Z" fill="#FD0D0D"/>
</svg>
