<svg width="36" height="30" viewBox="0 0 37 31" fill="none" xmlns="http://www.w3.org/2000/svg">
<path d="M35.8122 27.4745L20.0464 1.77302C18.9977 0.0596679 17.2801 0.0837935 16.2313 1.79711L0.465537 27.4631C-0.583144 29.1764 0.20053 30.5 2.20722 30.5H34.0689C36.077 30.5 36.8607 29.1849 35.812 27.4744L35.8122 27.4745ZM18.1262 7.46156C19.1351 7.46156 19.9174 8.57685 19.865 9.94014L19.5447 18.1541C19.4937 19.516 18.8517 20.6312 18.1219 20.6312C17.3907 20.6312 16.7487 19.516 16.6977 18.1541L16.3816 9.94014C16.3306 8.57685 17.1143 7.46156 18.1262 7.46156ZM18.1262 26.8182C16.8521 26.8182 15.9777 25.8872 16.0047 24.6146C16.0047 23.3136 16.8805 22.4109 18.1262 22.4109C19.4243 22.4109 20.2448 23.3151 20.2731 24.6146C20.2717 25.8872 19.4243 26.8182 18.1262 26.8182Z" fill="#5C9DFF"/>
</svg>
