<svg width="30" height="30" viewBox="0 0 30 30" fill="none" xmlns="http://www.w3.org/2000/svg">
<path d="M14.5507 8.27788C14.5507 8.51881 14.5361 8.75852 14.502 8.99579C14.5142 8.91305 14.5239 8.83518 14.5361 8.75243C14.4692 9.22697 14.3438 9.68935 14.1589 10.1335C14.1893 10.0605 14.2197 9.98747 14.2502 9.91447C14.1188 10.2211 13.9581 10.5168 13.7732 10.7966C13.7245 10.8696 13.6734 10.9402 13.6235 11.0096C13.5116 11.1677 13.7574 10.8453 13.6576 10.967C13.6333 10.9974 13.6089 11.0278 13.5822 11.0619C13.4751 11.1896 13.3632 11.3113 13.2476 11.4294C13.1283 11.5486 13.0066 11.6581 12.8801 11.764C12.8497 11.7883 12.8193 11.8151 12.7852 11.8394C12.6635 11.9392 12.9653 11.7056 12.8436 11.7932C12.7742 11.8443 12.7037 11.8929 12.6307 11.9428C12.3471 12.1351 12.0466 12.2957 11.7327 12.4295C11.8057 12.3991 11.8787 12.3687 11.9517 12.3383C11.5112 12.5232 11.0488 12.6522 10.5706 12.7155C10.6534 12.7033 10.7312 12.6936 10.814 12.6814C10.337 12.7422 9.85518 12.7422 9.37818 12.6814C9.46092 12.6936 9.53879 12.7033 9.62154 12.7155C9.147 12.6486 8.68462 12.5232 8.24049 12.3383C8.31349 12.3687 8.3865 12.3991 8.45951 12.4295C8.15288 12.2981 7.8572 12.1375 7.57735 11.9526C7.50434 11.9039 7.43377 11.8528 7.36441 11.8029C7.20623 11.691 7.52868 11.9368 7.407 11.837C7.37658 11.8127 7.34616 11.7883 7.31209 11.7615C7.18433 11.6545 7.06265 11.5425 6.94462 11.4269C6.82538 11.3077 6.71586 11.186 6.61001 11.0595C6.58567 11.029 6.55891 10.9986 6.53457 10.9646C6.43479 10.8429 6.66842 11.1446 6.58081 11.023C6.5297 10.9536 6.48103 10.883 6.43114 10.81C6.23889 10.5265 6.07828 10.226 5.94443 9.91204C5.97485 9.98505 6.00527 10.0581 6.03569 10.1311C5.85074 9.69057 5.72176 9.22822 5.6585 8.75001C5.67066 8.83275 5.6804 8.91062 5.69257 8.99337C5.63173 8.5164 5.63173 8.03455 5.69257 7.55755C5.6804 7.64029 5.67067 7.71817 5.6585 7.80091C5.72542 7.32638 5.85075 6.86399 6.03569 6.41986C6.00527 6.49287 5.97485 6.56587 5.94443 6.63888C6.07584 6.33225 6.23646 6.03657 6.42139 5.75672C6.47006 5.68371 6.52117 5.61314 6.57106 5.54379C6.683 5.3856 6.43721 5.70805 6.53699 5.58637C6.56132 5.55595 6.58566 5.52553 6.61243 5.49146C6.7195 5.3637 6.83145 5.24202 6.94704 5.12399C7.06263 5.00475 7.18796 4.89523 7.31451 4.78938C7.34493 4.76505 7.37535 4.73828 7.40942 4.71394C7.5311 4.61416 7.22934 4.84779 7.35101 4.76018C7.42037 4.70907 7.49094 4.6604 7.56395 4.61051C7.84746 4.41826 8.14801 4.25765 8.46193 4.1238C8.38892 4.15422 8.31592 4.18464 8.24291 4.21506C8.6834 4.03011 9.14575 3.90113 9.62396 3.83787C9.54122 3.85004 9.46335 3.85977 9.38061 3.87194C9.85757 3.8111 10.3394 3.8111 10.8164 3.87194C10.7337 3.85977 10.6558 3.85004 10.5731 3.83787C11.0476 3.90479 11.51 4.03012 11.9541 4.21506C11.8811 4.18464 11.8081 4.15422 11.7351 4.1238C12.0417 4.25521 12.3374 4.41583 12.6172 4.60076C12.6903 4.64944 12.7608 4.70054 12.8302 4.75043C12.9884 4.86237 12.6659 4.61658 12.7876 4.71636C12.818 4.74069 12.8484 4.76503 12.8825 4.7918C13.0103 4.89888 13.1319 5.01082 13.25 5.12641C13.3692 5.24565 13.4787 5.36733 13.5846 5.49388C13.6089 5.5243 13.6357 5.55472 13.66 5.58879C13.7598 5.71047 13.5262 5.40871 13.6138 5.53039C13.6649 5.59974 13.7136 5.67032 13.7635 5.74332C13.9557 6.02683 14.1163 6.32738 14.2502 6.6413C14.2198 6.56829 14.1893 6.49529 14.1589 6.42228C14.3439 6.86277 14.4728 7.32512 14.5361 7.80333C14.5239 7.72059 14.5142 7.64272 14.502 7.55998C14.5349 7.79725 14.5507 8.03819 14.5507 8.27788C14.5531 8.75485 14.9705 9.21237 15.4633 9.19047C15.9561 9.16857 16.3783 8.78892 16.3759 8.27788C16.3698 7.01 15.9889 5.72264 15.2467 4.69069C14.474 3.61749 13.4361 2.81928 12.1926 2.36054C9.79188 1.47838 6.91427 2.25711 5.29573 4.23681C4.44398 5.2796 3.93901 6.50976 3.83316 7.85297C3.73339 9.11842 4.05827 10.4325 4.71532 11.5155C5.3505 12.562 6.30688 13.4502 7.42631 13.9589C8.67958 14.5247 10.0327 14.6889 11.3832 14.4237C13.8448 13.937 15.8975 11.8295 16.2772 9.34348C16.3319 8.99062 16.3721 8.63775 16.3721 8.27878C16.3745 7.80182 15.9523 7.3443 15.4595 7.36619C14.9667 7.38688 14.5531 7.76317 14.5507 8.27788Z" fill="white"/>
<path d="M25.3276 9.96536C25.3276 10.1479 25.3154 10.3304 25.2911 10.5129C25.3033 10.4302 25.313 10.3523 25.3252 10.2695C25.2765 10.6224 25.1816 10.9631 25.0417 11.2916C25.0721 11.2186 25.1025 11.1456 25.1329 11.0726C25.0356 11.3014 24.92 11.5167 24.7801 11.7236C24.7436 11.7783 24.7046 11.8331 24.6645 11.8878C24.6426 11.9146 24.5793 11.9998 24.6766 11.8757C24.7764 11.7443 24.6985 11.8453 24.6742 11.8757C24.5951 11.973 24.5099 12.0643 24.4211 12.1555C24.3359 12.2407 24.2483 12.3198 24.1571 12.3965C24.1473 12.4062 24.0938 12.4634 24.0816 12.4597C24.0816 12.4597 24.2739 12.3162 24.1729 12.3904C24.1181 12.4293 24.0658 12.4695 24.0123 12.506C23.803 12.6495 23.5767 12.7676 23.3455 12.8686C23.4185 12.8382 23.4915 12.8077 23.5645 12.7773C23.236 12.9136 22.8953 13.0085 22.5424 13.0608C22.6252 13.0487 22.703 13.0389 22.7858 13.0268C22.4207 13.0754 22.0557 13.0754 21.6907 13.0268C21.7734 13.0389 21.8513 13.0487 21.934 13.0608C21.5812 13.0122 21.2405 12.9173 20.912 12.7773C20.985 12.8077 21.058 12.8382 21.131 12.8686C20.9022 12.7712 20.6868 12.6556 20.48 12.5157C20.4253 12.4792 20.3705 12.4403 20.3157 12.4001C20.289 12.3782 20.2038 12.3149 20.3279 12.4123C20.4593 12.5121 20.3583 12.4342 20.3279 12.4099C20.2306 12.3308 20.1393 12.2456 20.048 12.1568C19.9629 12.0716 19.8838 11.984 19.8071 11.8927C19.7974 11.883 19.7402 11.8295 19.7439 11.8173C19.7439 11.8173 19.8874 12.0095 19.8132 11.9085C19.7743 11.8538 19.7341 11.8015 19.6976 11.7479C19.554 11.5386 19.436 11.3123 19.335 11.0811C19.3654 11.1541 19.3958 11.2272 19.4263 11.3002C19.29 10.9716 19.1951 10.6309 19.1428 10.2781C19.1549 10.3608 19.1647 10.4387 19.1768 10.5214C19.1282 10.1564 19.1282 9.79135 19.1768 9.42633C19.1647 9.50907 19.1549 9.58695 19.1428 9.66969C19.1914 9.31683 19.2863 8.97611 19.4263 8.64761C19.3958 8.72062 19.3654 8.79362 19.335 8.86663C19.4323 8.63787 19.5479 8.4225 19.6879 8.21566C19.7244 8.16091 19.7633 8.10615 19.8035 8.0514C19.8254 8.02463 19.8886 7.93945 19.7913 8.06357C19.6915 8.19498 19.7694 8.09398 19.7937 8.06357C19.8728 7.96622 19.958 7.87496 20.0468 7.7837C20.132 7.69853 20.2196 7.61944 20.3109 7.54278C20.3206 7.53305 20.3741 7.47586 20.3863 7.47951C20.3863 7.47951 20.194 7.62309 20.295 7.54887C20.3498 7.50993 20.4021 7.46978 20.4557 7.43327C20.6649 7.28969 20.8913 7.17167 21.1224 7.07066L20.9034 7.16192C21.232 7.02564 21.5726 6.93073 21.9255 6.87841C21.8428 6.89058 21.7649 6.90031 21.6822 6.91248C22.0472 6.86381 22.4122 6.86381 22.7773 6.91248C22.6945 6.90031 22.6166 6.89058 22.5339 6.87841C22.8868 6.92708 23.2275 7.02199 23.556 7.16192L23.337 7.07066C23.5657 7.168 23.7811 7.2836 23.9879 7.42352C24.0427 7.46003 24.0974 7.49897 24.1522 7.53912C24.179 7.56102 24.2641 7.62429 24.14 7.52695C24.0086 7.42717 24.1096 7.50505 24.14 7.52938C24.2374 7.60848 24.3286 7.69365 24.4199 7.78247C24.5051 7.86765 24.5841 7.95526 24.6608 8.04652C24.6705 8.05625 24.7277 8.10979 24.7241 8.12196C24.7241 8.12196 24.5805 7.92971 24.6547 8.0307C24.6937 8.08545 24.7338 8.13778 24.7703 8.19131C24.9139 8.4006 25.0319 8.62691 25.1329 8.8581C25.1025 8.78509 25.0721 8.71209 25.0417 8.63908C25.1779 8.96762 25.2729 9.3083 25.3252 9.66117C25.313 9.57843 25.3033 9.50055 25.2911 9.41781C25.3154 9.60033 25.3276 9.78285 25.3276 9.96536C25.33 10.4423 25.7437 10.8998 26.2402 10.8779C26.733 10.856 27.1552 10.4764 27.1528 9.96536C27.1467 8.98343 26.8547 7.97228 26.2791 7.16918C25.6646 6.31499 24.8494 5.68471 23.8577 5.3221C21.9985 4.6407 19.7451 5.24909 18.4916 6.77981C17.8163 7.60477 17.4208 8.55873 17.3332 9.62464C17.2505 10.6102 17.506 11.6445 18.017 12.4938C18.5098 13.3115 19.2582 14.0148 20.1342 14.4066C21.132 14.8568 22.1967 14.9882 23.271 14.7716C25.1753 14.3883 26.7816 12.742 27.0772 10.8172C27.1198 10.5337 27.1526 10.2514 27.1563 9.96542C27.1587 9.48846 26.7328 9.03093 26.2437 9.05283C25.7448 9.07473 25.3311 9.45438 25.3275 9.96542L25.3276 9.96536Z" fill="white"/>
<path d="M18.364 23.5178V24.6737C18.364 25.0692 18.3981 25.4829 18.3518 25.8783C18.364 25.7956 18.3737 25.7177 18.3859 25.635C18.3713 25.7445 18.3433 25.8479 18.3007 25.9489C18.3311 25.8759 18.3616 25.8029 18.392 25.7299C18.3579 25.8029 18.319 25.8735 18.28 25.9392C18.2107 26.0608 18.4139 25.7932 18.3409 25.8662C18.3141 25.8929 18.2898 25.927 18.2618 25.9538C18.2374 25.9781 18.2131 26 18.1888 26.0207C18.0793 26.1241 18.381 25.899 18.2472 25.972C18.1778 26.011 18.1109 26.0511 18.0379 26.084C18.1109 26.0535 18.1839 26.0231 18.2569 25.9927C18.1535 26.0316 18.0525 26.0596 17.943 26.0779C18.0257 26.0657 18.1036 26.056 18.1863 26.0438C18.0038 26.0657 17.8152 26.056 17.629 26.056H16.4914H12.6889H8.06756H4.08632C3.45604 26.056 2.83061 26.0621 2.2003 26.056C2.13946 26.056 2.07619 26.0535 2.01535 26.0438C2.09809 26.056 2.17596 26.0657 2.25871 26.0779C2.1492 26.0633 2.04577 26.0353 1.94478 25.9927C2.01779 26.0231 2.09079 26.0535 2.1638 26.084C2.09079 26.0499 2.02022 26.011 1.95451 25.972C1.83283 25.9027 2.10052 26.1059 2.02752 26.0329C2.00075 26.0061 1.96668 25.9817 1.93991 25.9538C1.91557 25.9294 1.89367 25.9051 1.87299 25.8808C1.76956 25.7712 1.99467 26.073 1.92166 25.9392C1.88272 25.8698 1.84257 25.8029 1.80971 25.7299C1.84013 25.8029 1.87055 25.8759 1.90097 25.9489C1.86204 25.8455 1.83405 25.742 1.8158 25.635C1.82797 25.7177 1.8377 25.7956 1.84987 25.8783C1.8012 25.5303 1.83162 25.1689 1.83162 24.8222V23.5713C1.83162 23.2817 1.84622 22.997 1.88272 22.7098C1.87055 22.7926 1.86082 22.8705 1.84865 22.9532C1.92166 22.4093 2.06524 21.88 2.27696 21.3738C2.24654 21.4468 2.21612 21.5198 2.1857 21.5928C2.3378 21.2375 2.52395 20.8932 2.73932 20.5708C2.79043 20.4953 2.8464 20.4187 2.89994 20.342C3.03378 20.1619 2.78434 20.4856 2.87803 20.3688C2.9121 20.3262 2.94496 20.286 2.97781 20.2447C3.09705 20.1011 3.22117 19.9648 3.355 19.8334C3.48641 19.702 3.62269 19.5779 3.76627 19.4562C3.80521 19.4221 3.84901 19.3893 3.89038 19.3564C4.01449 19.2566 3.69326 19.5024 3.84779 19.3905C3.93053 19.3321 4.00841 19.2712 4.09115 19.2177C4.41726 19.0036 4.75794 18.8174 5.11691 18.6653C5.0439 18.6957 4.97089 18.7261 4.89789 18.7566C5.40286 18.5436 5.93215 18.4013 6.47727 18.3282C6.39453 18.3404 6.31666 18.3502 6.23391 18.3623C6.63546 18.3112 7.03455 18.3112 7.4361 18.3112H8.95465H12.5686C13.0432 18.3112 13.5177 18.3051 13.9923 18.366C13.9095 18.3538 13.8317 18.3441 13.7489 18.3319C14.2843 18.4073 14.8051 18.5509 15.304 18.7578C15.231 18.7274 15.1579 18.6969 15.0849 18.6665C15.4646 18.8271 15.8272 19.0255 16.1655 19.2603C16.2482 19.315 16.3236 19.3759 16.4027 19.4331C16.1472 19.2481 16.4027 19.4355 16.466 19.4878C16.6096 19.6095 16.7495 19.7373 16.8797 19.8748C17.0111 20.0086 17.1377 20.1522 17.2569 20.2982C17.2837 20.3323 17.3153 20.3676 17.3421 20.4053C17.3117 20.3688 17.2837 20.3299 17.2545 20.2934C17.2727 20.3177 17.291 20.342 17.3092 20.3664C17.364 20.4394 17.4163 20.516 17.4637 20.5878C17.673 20.9042 17.8555 21.2425 18.0052 21.5917C17.9748 21.5187 17.9444 21.4457 17.914 21.3727C18.1233 21.874 18.2693 22.4008 18.3423 22.9423C18.3301 22.8596 18.3204 22.7817 18.3082 22.699C18.3471 22.9703 18.3642 23.2429 18.3642 23.5179C18.3666 23.9948 18.784 24.4523 19.2768 24.4304C19.7696 24.4085 20.1918 24.0289 20.1894 23.5179C20.1869 22.7294 20.0616 21.9299 19.7903 21.1877C19.5068 20.4114 19.1149 19.7251 18.6039 19.0766C17.6305 17.8452 16.1703 16.957 14.6348 16.6406C13.8926 16.4885 13.1601 16.4824 12.4081 16.4824H9.92832H7.57019C6.81821 16.4824 6.07355 16.5092 5.33739 16.6893C2.69938 17.3354 0.541896 19.6083 0.11608 22.3059C-0.0238501 23.1856 0.00657068 24.0678 0.00657068 24.956C0.00657068 25.248 -0.0116811 25.5461 0.0126545 25.8382C0.0917466 26.769 0.740279 27.639 1.68938 27.8276C2.02763 27.8945 2.35252 27.886 2.68956 27.886H4.20811H9.05095H14.3707H17.7314H17.9955C18.5892 27.8836 19.1903 27.6487 19.5919 27.207C19.9447 26.8201 20.1358 26.3577 20.182 25.8382C20.1917 25.7348 20.1881 25.6313 20.1881 25.5243V24.3014V23.5166C20.1881 23.0396 19.7683 22.5821 19.2755 22.604C18.7839 22.6259 18.3641 23.0031 18.3641 23.5178L18.364 23.5178Z" fill="white"/>
<path d="M28.1747 21.9163V22.9749C28.1747 23.3302 28.199 23.6989 28.1686 24.0554C28.1807 23.9727 28.1905 23.8948 28.2026 23.8121C28.1929 23.879 28.1783 23.9435 28.154 24.0068C28.1844 23.9338 28.2148 23.8608 28.2452 23.7877C28.2306 23.8243 28.2087 23.8571 28.1941 23.8948C28.1272 24.0311 28.3584 23.7147 28.2282 23.8486C28.1041 23.9727 28.3718 23.7731 28.2915 23.8023C28.2489 23.8169 28.2124 23.8486 28.1698 23.8656C28.2428 23.8352 28.3158 23.8048 28.3888 23.7744C28.3255 23.7987 28.261 23.8133 28.1941 23.823C28.2769 23.8109 28.3547 23.8011 28.4375 23.789C28.1211 23.8157 27.795 23.795 27.4787 23.795H25.3104H20.4127H19.2787L20.1913 24.7076C20.1913 24.1029 20.2217 23.4884 20.1608 22.8849C20.0367 21.6499 19.6254 20.4452 18.8856 19.4391C18.4354 18.8246 17.9268 18.3172 17.3257 17.8549C17.3866 18.3318 17.4474 18.81 17.5107 19.2882C17.5593 19.2457 17.608 19.2055 17.6567 19.1666C17.793 19.051 17.4766 19.2943 17.6226 19.1933C17.7139 19.1301 17.8051 19.0656 17.9 19.0047C18.0923 18.8855 18.2918 18.7833 18.4987 18.6945C18.4257 18.7249 18.3527 18.7553 18.2797 18.7857C18.6301 18.6397 18.9952 18.5399 19.3687 18.484C19.286 18.4961 19.2081 18.5059 19.1254 18.518C19.4515 18.4754 19.7727 18.4754 20.1012 18.4754H21.3691H24.2772C24.6276 18.4754 24.9732 18.4694 25.3236 18.5144C25.2409 18.5022 25.163 18.4925 25.0803 18.4803C25.4599 18.5351 25.8286 18.6348 26.1839 18.7821L25.9649 18.6908C26.218 18.8003 26.4614 18.9281 26.6889 19.0802C26.7436 19.1167 26.7984 19.1556 26.8531 19.1958C26.9846 19.2907 26.7947 19.1374 26.7801 19.1374C26.7947 19.1374 26.8434 19.1885 26.8556 19.2006C26.9626 19.2882 27.0649 19.3832 27.1659 19.4805C27.2608 19.5754 27.3484 19.6728 27.4335 19.775C27.4554 19.7993 27.4761 19.8261 27.4968 19.8504C27.5637 19.9331 27.3569 19.6618 27.4384 19.7774C27.4773 19.8322 27.5175 19.8845 27.554 19.938C27.7122 20.1716 27.846 20.4186 27.9556 20.6778C27.9251 20.6048 27.8947 20.5318 27.8643 20.4588C28.014 20.8117 28.1137 21.1828 28.1661 21.5624C28.1539 21.4797 28.1442 21.4018 28.132 21.3191C28.1624 21.5223 28.1746 21.7194 28.1746 21.9165C28.177 22.3935 28.5907 22.851 29.0872 22.8291C29.58 22.8072 30.0022 22.4276 29.9998 21.9165C29.9937 20.4199 29.3427 18.9232 28.1928 17.9499C27.1975 17.1043 25.9722 16.6504 24.6642 16.6504H20.0868C19.6828 16.6504 19.2861 16.665 18.8846 16.7258C17.8868 16.8718 16.9742 17.344 16.2174 18.001C16.0008 18.1896 15.9314 18.4975 15.9643 18.7676C16.0069 19.0718 16.1614 19.2519 16.3999 19.4344C16.3853 19.4222 16.2295 19.2981 16.3244 19.376C16.3488 19.3942 16.3707 19.4125 16.3938 19.4344C16.4449 19.477 16.4972 19.522 16.5483 19.5658C16.6457 19.651 16.7369 19.7386 16.8282 19.8274C16.9194 19.9187 17.0083 20.0099 17.0922 20.1073C17.1713 20.1985 17.2468 20.3263 17.338 20.4017C17.3234 20.3896 17.2066 20.2253 17.2772 20.3263C17.2954 20.3506 17.3137 20.375 17.3319 20.3993C17.3684 20.448 17.4013 20.4966 17.4354 20.549C17.5084 20.656 17.5753 20.7655 17.6422 20.8751C17.7785 21.1063 17.8977 21.3435 18.0012 21.5905C17.9707 21.5175 17.9403 21.4445 17.9099 21.3715C18.1192 21.8728 18.2652 22.3997 18.3382 22.9412C18.326 22.8584 18.3163 22.7806 18.3041 22.6978C18.3893 23.361 18.3589 24.0387 18.3589 24.7079C18.3589 25.2007 18.775 25.6205 19.2715 25.6205H20.734H23.944H27.0711H28.047C28.3658 25.6205 28.6676 25.6181 28.9718 25.4867C29.5923 25.2251 29.9756 24.641 29.9914 23.9681C29.9938 23.8185 29.9914 23.6664 29.9914 23.5155V22.0189V21.9118C29.9914 21.4348 29.5716 20.9773 29.0788 20.9992C28.5945 21.026 28.1748 21.4056 28.1748 21.9166L28.1747 21.9163Z" fill="white"/>
<circle cx="10" cy="8" r="5" fill="white"/>
<circle cx="22" cy="10" r="4" fill="white"/>
<rect x="1" y="18" width="18" height="9" rx="3" fill="white"/>
<rect x="16" y="18" width="13" height="7" rx="3" fill="white"/>
</svg>
