<svg width="30" height="30" viewBox="0 0 30 26" fill="none" xmlns="http://www.w3.org/2000/svg">
<path d="M14.5507 6.27788C14.5507 6.51881 14.5361 6.75852 14.502 6.99579C14.5142 6.91305 14.5239 6.83518 14.5361 6.75243C14.4692 7.22697 14.3439 7.68935 14.1589 8.13349C14.1893 8.06048 14.2197 7.98747 14.2502 7.91447C14.1188 8.2211 13.9581 8.51678 13.7732 8.79662C13.7245 8.86963 13.6734 8.94021 13.6235 9.00956C13.5116 9.16774 13.7574 8.8453 13.6576 8.96697C13.6333 8.99739 13.6089 9.02781 13.5822 9.06188C13.4751 9.18964 13.3632 9.31132 13.2476 9.42935C13.1283 9.5486 13.0066 9.65811 12.8801 9.76396C12.8497 9.7883 12.8193 9.81507 12.7852 9.83941C12.6635 9.93918 12.9653 9.70556 12.8436 9.79317C12.7742 9.84427 12.7037 9.89294 12.6307 9.94283C12.3471 10.1351 12.0466 10.2957 11.7327 10.4295C11.8057 10.3991 11.8787 10.3687 11.9517 10.3383C11.5112 10.5232 11.0488 10.6522 10.5706 10.7155C10.6534 10.7033 10.7312 10.6936 10.814 10.6814C10.337 10.7422 9.85518 10.7422 9.37818 10.6814C9.46092 10.6936 9.53879 10.7033 9.62154 10.7155C9.147 10.6486 8.68462 10.5232 8.24049 10.3383C8.31349 10.3687 8.3865 10.3991 8.45951 10.4295C8.15288 10.2981 7.8572 10.1375 7.57735 9.95258C7.50434 9.90391 7.43377 9.85281 7.36441 9.80292C7.20623 9.69097 7.52868 9.93676 7.407 9.83699C7.37658 9.81265 7.34616 9.78832 7.31209 9.76155C7.18433 9.65447 7.06265 9.54252 6.94462 9.42694C6.82538 9.30769 6.71586 9.18601 6.61001 9.05946C6.58567 9.02905 6.55891 8.99863 6.53457 8.96455C6.43479 8.84288 6.66842 9.14464 6.58081 9.02296C6.5297 8.9536 6.48103 8.88303 6.43114 8.81002C6.23889 8.52651 6.07828 8.22597 5.94443 7.91204C5.97485 7.98505 6.00527 8.05806 6.03569 8.13106C5.85074 7.69057 5.72176 7.22822 5.6585 6.75001C5.67066 6.83275 5.6804 6.91062 5.69257 6.99337C5.63173 6.5164 5.63173 6.03455 5.69257 5.55755C5.6804 5.64029 5.67067 5.71817 5.6585 5.80091C5.72542 5.32638 5.85075 4.86399 6.03569 4.41986C6.00527 4.49287 5.97485 4.56587 5.94443 4.63888C6.07584 4.33225 6.23646 4.03657 6.42139 3.75672C6.47006 3.68371 6.52117 3.61314 6.57106 3.54379C6.683 3.3856 6.43721 3.70805 6.53699 3.58637C6.56132 3.55595 6.58566 3.52553 6.61243 3.49146C6.7195 3.3637 6.83145 3.24202 6.94704 3.12399C7.06263 3.00475 7.18796 2.89523 7.31451 2.78938C7.34493 2.76505 7.37535 2.73828 7.40942 2.71394C7.5311 2.61416 7.22934 2.84779 7.35101 2.76018C7.42037 2.70907 7.49094 2.6604 7.56395 2.61051C7.84746 2.41826 8.14801 2.25765 8.46193 2.1238C8.38892 2.15422 8.31592 2.18464 8.24291 2.21506C8.6834 2.03011 9.14575 1.90113 9.62396 1.83787C9.54122 1.85004 9.46335 1.85977 9.38061 1.87194C9.85757 1.8111 10.3394 1.8111 10.8164 1.87194C10.7337 1.85977 10.6558 1.85004 10.5731 1.83787C11.0476 1.90479 11.51 2.03012 11.9541 2.21506C11.8811 2.18464 11.8081 2.15422 11.7351 2.1238C12.0417 2.25521 12.3374 2.41583 12.6172 2.60076C12.6903 2.64944 12.7608 2.70054 12.8302 2.75043C12.9884 2.86237 12.6659 2.61658 12.7876 2.71636C12.818 2.74069 12.8484 2.76503 12.8825 2.7918C13.0103 2.89888 13.1319 3.01082 13.25 3.12641C13.3692 3.24565 13.4787 3.36733 13.5846 3.49388C13.6089 3.5243 13.6357 3.55472 13.66 3.58879C13.7598 3.71047 13.5262 3.40871 13.6138 3.53039C13.6649 3.59974 13.7136 3.67032 13.7635 3.74332C13.9557 4.02683 14.1163 4.32738 14.2502 4.6413C14.2198 4.56829 14.1893 4.49529 14.1589 4.42228C14.3439 4.86277 14.4728 5.32512 14.5361 5.80333C14.5239 5.72059 14.5142 5.64272 14.502 5.55998C14.5349 5.79725 14.5507 6.03819 14.5507 6.27788C14.5531 6.75485 14.9705 7.21237 15.4633 7.19047C15.9561 7.16857 16.3783 6.78892 16.3759 6.27788C16.3698 5.01 15.9889 3.72264 15.2467 2.69069C14.474 1.61749 13.4361 0.819278 12.1926 0.360537C9.79188 -0.521621 6.91427 0.257111 5.29573 2.23681C4.44398 3.2796 3.93901 4.50976 3.83316 5.85297C3.73339 7.11842 4.05827 8.43253 4.71532 9.51555C5.3505 10.562 6.30688 11.4502 7.42631 11.9589C8.67958 12.5247 10.0327 12.6889 11.3832 12.4237C13.8448 11.937 15.8975 9.8295 16.2772 7.34348C16.3319 6.99062 16.3721 6.63775 16.3721 6.27878C16.3745 5.80182 15.9523 5.3443 15.4595 5.36619C14.9667 5.38688 14.553 5.76285 14.5505 6.27757L14.5507 6.27788Z" fill="white"/>
<path d="M25.3276 7.96536C25.3276 8.14788 25.3154 8.3304 25.2911 8.51291C25.3033 8.43017 25.313 8.35229 25.3252 8.26955C25.2765 8.62241 25.1816 8.96313 25.0417 9.29163C25.0721 9.21862 25.1025 9.14562 25.1329 9.07261C25.0356 9.30137 24.92 9.51675 24.7801 9.72358C24.7436 9.77833 24.7046 9.83309 24.6645 9.88784C24.6426 9.91461 24.5793 9.99978 24.6766 9.87567C24.7764 9.74426 24.6985 9.84525 24.6742 9.87567C24.5951 9.97302 24.5099 10.0643 24.4211 10.1555C24.3359 10.2407 24.2483 10.3198 24.1571 10.3965C24.1473 10.4062 24.0938 10.4634 24.0816 10.4597C24.0816 10.4597 24.2739 10.3162 24.1729 10.3904C24.1181 10.4293 24.0658 10.4695 24.0123 10.506C23.803 10.6495 23.5767 10.7676 23.3455 10.8686C23.4185 10.8382 23.4915 10.8077 23.5645 10.7773C23.236 10.9136 22.8953 11.0085 22.5424 11.0608C22.6252 11.0487 22.703 11.0389 22.7858 11.0268C22.4207 11.0754 22.0557 11.0754 21.6907 11.0268C21.7734 11.0389 21.8513 11.0487 21.934 11.0608C21.5812 11.0122 21.2405 10.9173 20.912 10.7773C20.985 10.8077 21.058 10.8382 21.131 10.8686C20.9022 10.7712 20.6868 10.6556 20.48 10.5157C20.4253 10.4792 20.3705 10.4403 20.3157 10.4001C20.289 10.3782 20.2038 10.3149 20.3279 10.4123C20.4593 10.5121 20.3583 10.4342 20.3279 10.4099C20.2306 10.3308 20.1393 10.2456 20.048 10.1568C19.9629 10.0716 19.8838 9.98398 19.8071 9.89272C19.7974 9.88299 19.7402 9.82945 19.7439 9.81728C19.7439 9.81728 19.8874 10.0095 19.8132 9.90854C19.7743 9.85379 19.7341 9.80146 19.6976 9.74793C19.554 9.53864 19.436 9.31233 19.335 9.08114C19.3654 9.15415 19.3958 9.22715 19.4263 9.30016C19.29 8.97162 19.1951 8.63094 19.1428 8.27807C19.1549 8.36081 19.1647 8.43869 19.1768 8.52143C19.1282 8.15639 19.1282 7.79135 19.1768 7.42633C19.1647 7.50907 19.1549 7.58695 19.1428 7.66969C19.1914 7.31683 19.2863 6.97611 19.4263 6.64761C19.3958 6.72062 19.3654 6.79362 19.335 6.86663C19.4323 6.63787 19.5479 6.4225 19.6879 6.21566C19.7244 6.16091 19.7633 6.10615 19.8035 6.0514C19.8254 6.02463 19.8886 5.93945 19.7913 6.06357C19.6915 6.19498 19.7694 6.09399 19.7937 6.06357C19.8728 5.96622 19.958 5.87496 20.0468 5.7837C20.132 5.69853 20.2196 5.61944 20.3109 5.54278C20.3206 5.53305 20.3741 5.47586 20.3863 5.47951C20.3863 5.47951 20.194 5.62309 20.295 5.54887C20.3498 5.50993 20.4021 5.46977 20.4557 5.43327C20.6649 5.28969 20.8913 5.17167 21.1224 5.07066L20.9034 5.16192C21.232 5.02564 21.5726 4.93073 21.9255 4.87841C21.8428 4.89058 21.7649 4.90031 21.6822 4.91248C22.0472 4.86381 22.4122 4.86381 22.7773 4.91248C22.6945 4.90031 22.6166 4.89058 22.5339 4.87841C22.8868 4.92708 23.2275 5.02199 23.556 5.16192L23.337 5.07066C23.5657 5.168 23.7811 5.2836 23.9879 5.42352C24.0427 5.46003 24.0974 5.49897 24.1522 5.53912C24.179 5.56102 24.2641 5.62429 24.14 5.52695C24.0086 5.42717 24.1096 5.50505 24.14 5.52938C24.2374 5.60848 24.3286 5.69365 24.4199 5.78247C24.5051 5.86765 24.5841 5.95526 24.6608 6.04652C24.6705 6.05625 24.7277 6.10979 24.7241 6.12196C24.7241 6.12196 24.5805 5.92971 24.6547 6.0307C24.6937 6.08545 24.7338 6.13778 24.7703 6.19131C24.9139 6.4006 25.0319 6.62691 25.1329 6.8581C25.1025 6.78509 25.0721 6.71209 25.0417 6.63908C25.1779 6.96762 25.2729 7.3083 25.3252 7.66117C25.313 7.57843 25.3033 7.50055 25.2911 7.41781C25.3154 7.60033 25.3276 7.78285 25.3276 7.96536C25.33 8.44232 25.7437 8.89985 26.2402 8.87795C26.733 8.85605 27.1552 8.4764 27.1528 7.96536C27.1467 6.98343 26.8547 5.97228 26.2791 5.16918C25.6646 4.31499 24.8494 3.68471 23.8577 3.3221C21.9985 2.6407 19.7451 3.24909 18.4916 4.77981C17.8163 5.60477 17.4208 6.55873 17.3332 7.62464C17.2505 8.61025 17.506 9.64451 18.017 10.4938C18.5098 11.3115 19.2582 12.0148 20.1342 12.4066C21.132 12.8568 22.1967 12.9882 23.271 12.7716C25.1753 12.3883 26.7816 10.742 27.0772 8.81718C27.1198 8.53366 27.1526 8.25137 27.1563 7.96542C27.1587 7.48846 26.7328 7.03093 26.2437 7.05283C25.7448 7.07473 25.3311 7.45438 25.3275 7.96542L25.3276 7.96536Z" fill="white"/>
<path d="M18.364 21.518V22.6739C18.364 23.0694 18.3981 23.4831 18.3518 23.8785C18.364 23.7958 18.3737 23.7179 18.3859 23.6352C18.3713 23.7447 18.3433 23.8481 18.3007 23.9491C18.3311 23.8761 18.3616 23.8031 18.392 23.7301C18.3579 23.8031 18.319 23.8737 18.28 23.9394C18.2107 24.0611 18.4139 23.7934 18.3409 23.8664C18.3141 23.8931 18.2898 23.9272 18.2618 23.954C18.2374 23.9783 18.2131 24.0002 18.1888 24.0209C18.0793 24.1243 18.381 23.8992 18.2472 23.9722C18.1778 24.0112 18.1109 24.0513 18.0379 24.0842C18.1109 24.0538 18.1839 24.0233 18.2569 23.9929C18.1535 24.0319 18.0525 24.0598 17.943 24.0781C18.0257 24.0659 18.1036 24.0562 18.1863 24.044C18.0038 24.0659 17.8152 24.0562 17.629 24.0562H16.4914H12.6889H8.06756H4.08632C3.45604 24.0562 2.83061 24.0623 2.2003 24.0562C2.13946 24.0562 2.07619 24.0538 2.01535 24.044C2.09809 24.0562 2.17596 24.0659 2.25871 24.0781C2.1492 24.0635 2.04577 24.0355 1.94478 23.9929C2.01779 24.0233 2.09079 24.0538 2.1638 24.0842C2.09079 24.0501 2.02022 24.0112 1.95451 23.9722C1.83283 23.9029 2.10052 24.1061 2.02752 24.0331C2.00075 24.0063 1.96668 23.982 1.93991 23.954C1.91557 23.9296 1.89367 23.9053 1.87299 23.881C1.76956 23.7715 1.99467 24.0732 1.92166 23.9394C1.88272 23.87 1.84257 23.8031 1.80971 23.7301C1.84013 23.8031 1.87055 23.8761 1.90097 23.9491C1.86204 23.8457 1.83405 23.7423 1.8158 23.6352C1.82797 23.7179 1.8377 23.7958 1.84987 23.8785C1.8012 23.5305 1.83162 23.1692 1.83162 22.8224V21.5715C1.83162 21.2819 1.84622 20.9972 1.88272 20.7101C1.87055 20.7928 1.86082 20.8707 1.84865 20.9534C1.92166 20.4095 2.06524 19.8802 2.27696 19.374C2.24654 19.447 2.21612 19.52 2.1857 19.5931C2.3378 19.2378 2.52395 18.8934 2.73932 18.571C2.79043 18.4955 2.8464 18.4189 2.89994 18.3422C3.03378 18.1621 2.78434 18.4858 2.87803 18.369C2.9121 18.3264 2.94496 18.2862 2.97781 18.2449C3.09705 18.1013 3.22116 17.965 3.355 17.8336C3.48641 17.7022 3.62269 17.5781 3.76627 17.4564C3.80521 17.4223 3.84901 17.3895 3.89038 17.3566C4.01449 17.2569 3.69326 17.5026 3.84779 17.3907C3.93053 17.3323 4.00841 17.2715 4.09115 17.2179C4.41726 17.0038 4.75794 16.8176 5.11691 16.6655C5.0439 16.6959 4.97089 16.7263 4.89789 16.7568C5.40286 16.5438 5.93215 16.4015 6.47727 16.3285C6.39453 16.3406 6.31666 16.3504 6.23391 16.3625C6.63546 16.3114 7.03455 16.3114 7.4361 16.3114H8.95465H12.5686C13.0432 16.3114 13.5177 16.3053 13.9923 16.3662C13.9095 16.354 13.8317 16.3443 13.7489 16.3321C14.2843 16.4076 14.8051 16.5511 15.304 16.758C15.231 16.7276 15.1579 16.6972 15.0849 16.6667C15.4646 16.8273 15.8272 17.0257 16.1655 17.2605C16.2482 17.3153 16.3236 17.3761 16.4027 17.4333C16.1472 17.2483 16.4027 17.4357 16.466 17.488C16.6096 17.6097 16.7495 17.7375 16.8797 17.875C17.0111 18.0088 17.1377 18.1524 17.2569 18.2984C17.2837 18.3325 17.3153 18.3678 17.3421 18.4055C17.3117 18.369 17.2837 18.3301 17.2545 18.2936C17.2727 18.3179 17.291 18.3422 17.3092 18.3666C17.364 18.4396 17.4163 18.5162 17.4637 18.588C17.673 18.9044 17.8555 19.2427 18.0052 19.5919C17.9748 19.5189 17.9444 19.4459 17.914 19.3729C18.1233 19.8742 18.2693 20.4011 18.3423 20.9425C18.3301 20.8598 18.3204 20.7819 18.3082 20.6992C18.3471 20.9705 18.3642 21.2431 18.3642 21.5181C18.3666 21.995 18.784 22.4526 19.2768 22.4307C19.7696 22.4088 20.1918 22.0291 20.1894 21.5181C20.1869 20.7296 20.0616 19.9302 19.7903 19.1879C19.5068 18.4116 19.1149 17.7253 18.6039 17.0768C17.6305 15.8454 16.1703 14.9572 14.6348 14.6408C13.8926 14.4887 13.1601 14.4826 12.4081 14.4826H9.92832H7.57019C6.81821 14.4826 6.07355 14.5094 5.33739 14.6895C2.69938 15.3356 0.541896 17.6086 0.11608 20.3061C-0.0238501 21.1858 0.00657068 22.068 0.00657068 22.9562C0.00657068 23.2483 -0.0116811 23.5464 0.0126545 23.8384C0.0917466 24.7692 0.740279 25.6392 1.68938 25.8278C2.02763 25.8947 2.35252 25.8862 2.68956 25.8862H4.20811H9.05095H14.3707H17.7314H17.9955C18.5892 25.8838 19.1903 25.649 19.5919 25.2073C19.9447 24.8203 20.1358 24.3579 20.182 23.8384C20.1917 23.735 20.1881 23.6315 20.1881 23.5245V22.3016V21.5168C20.1881 21.0398 19.7683 20.5823 19.2755 20.6042C18.7839 20.6261 18.3641 21.0033 18.3641 21.518L18.364 21.518Z" fill="white"/>
<path d="M28.1749 19.9163V20.9749C28.1749 21.3302 28.1992 21.6988 28.1688 22.0554C28.181 21.9726 28.1907 21.8948 28.2029 21.812C28.1931 21.8789 28.1785 21.9434 28.1542 22.0067C28.1846 21.9337 28.215 21.8607 28.2455 21.7877C28.2309 21.8242 28.209 21.857 28.1944 21.8948C28.1274 22.031 28.3586 21.7147 28.2284 21.8485C28.1043 21.9726 28.372 21.7731 28.2917 21.8023C28.2491 21.8169 28.2126 21.8485 28.17 21.8656C28.243 21.8351 28.316 21.8047 28.3891 21.7743C28.3258 21.7986 28.2613 21.8132 28.1944 21.823C28.2771 21.8108 28.355 21.8011 28.4377 21.7889C28.1214 21.8157 27.7953 21.795 27.4789 21.795H25.3106H20.4129H19.2789L20.1915 22.7076C20.1915 22.1028 20.2219 21.4883 20.1611 20.8848C20.037 19.6498 19.6257 18.4452 18.8859 17.439C18.4357 16.8246 17.9271 16.3172 17.326 15.8548C17.3868 16.3318 17.4476 16.81 17.5109 17.2882C17.5596 17.2456 17.6083 17.2054 17.6569 17.1665C17.7932 17.0509 17.4769 17.2943 17.6229 17.1933C17.7141 17.13 17.8054 17.0655 17.9003 17.0047C18.0925 16.8854 18.2921 16.7832 18.499 16.6944C18.4259 16.7248 18.3529 16.7552 18.2799 16.7857C18.6304 16.6396 18.9954 16.5399 19.369 16.4839C19.2862 16.4961 19.2083 16.5058 19.1256 16.518C19.4517 16.4754 19.7729 16.4754 20.1015 16.4754H21.3693H24.2774C24.6279 16.4754 24.9734 16.4693 25.3239 16.5143C25.2411 16.5022 25.1633 16.4924 25.0805 16.4802C25.4602 16.535 25.8288 16.6348 26.1842 16.782L25.9651 16.6908C26.2182 16.8003 26.4616 16.928 26.6891 17.0801C26.7439 17.1166 26.7986 17.1556 26.8534 17.1957C26.9848 17.2906 26.795 17.1373 26.7804 17.1373C26.795 17.1373 26.8436 17.1884 26.8558 17.2006C26.9629 17.2882 27.0651 17.3831 27.1661 17.4804C27.261 17.5754 27.3486 17.6727 27.4338 17.7749C27.4557 17.7992 27.4764 17.826 27.4971 17.8503C27.564 17.9331 27.3571 17.6617 27.4387 17.7773C27.4776 17.8321 27.5177 17.8844 27.5542 17.9379C27.7124 18.1716 27.8463 18.4186 27.9558 18.6778C27.9254 18.6047 27.895 18.5317 27.8645 18.4587C28.0142 18.8116 28.114 19.1827 28.1663 19.5624C28.1541 19.4796 28.1444 19.4018 28.1322 19.319C28.1627 19.5222 28.1748 19.7193 28.1748 19.9165C28.1773 20.3934 28.5909 20.8509 29.0874 20.829C29.5802 20.8071 30.0024 20.4275 30 19.9165C29.9939 18.4198 29.3429 16.9232 28.1931 15.9499C27.1977 15.1042 25.9724 14.6503 24.6644 14.6503H20.087C19.683 14.6503 19.2864 14.6649 18.8848 14.7258C17.8871 14.8718 16.9745 15.3439 16.2176 16.001C16.001 16.1896 15.9317 16.4974 15.9645 16.7675C16.0071 17.0717 16.1616 17.2518 16.4001 17.4343C16.3855 17.4222 16.2298 17.298 16.3247 17.3759C16.349 17.3942 16.3709 17.4124 16.394 17.4343C16.4451 17.4769 16.4975 17.5219 16.5486 17.5657C16.6459 17.6509 16.7372 17.7385 16.8284 17.8273C16.9197 17.9186 17.0085 18.0099 17.0925 18.1072C17.1716 18.1985 17.247 18.3262 17.3383 18.4017C17.3237 18.3895 17.2069 18.2252 17.2774 18.3262C17.2957 18.3506 17.3139 18.3749 17.3322 18.3992C17.3687 18.4479 17.4015 18.4966 17.4356 18.5489C17.5086 18.656 17.5755 18.7655 17.6425 18.875C17.7787 19.1062 17.898 19.3435 18.0014 19.5905C17.971 19.5175 17.9406 19.4445 17.9101 19.3715C18.1194 19.8728 18.2654 20.3996 18.3384 20.9411C18.3263 20.8584 18.3165 20.7805 18.3044 20.6978C18.3896 21.3609 18.3591 22.0387 18.3591 22.7079C18.3591 23.2007 18.7753 23.6205 19.2717 23.6205H20.7343H23.9443H27.0714H28.0472C28.366 23.6205 28.6678 23.618 28.972 23.4866C29.5926 23.225 29.9759 22.641 29.9917 21.9681C29.9941 21.8184 29.9917 21.6663 29.9917 21.5154V20.0188V19.9117C29.9917 19.4348 29.5719 18.9772 29.0791 18.9991C28.5948 19.0259 28.175 19.4055 28.175 19.9166L28.1749 19.9163Z" fill="white"/>
</svg>
