<svg width="30" height="30" viewBox="2 2 30 30" fill="none" xmlns="http://www.w3.org/2000/svg">
<path fill-rule="evenodd" clip-rule="evenodd" d="M3.12515 2.5H26.8732C27.218 2.5 27.4983 2.78036 27.4983 3.12515V26.8748C27.4983 27.2197 27.218 27.5 26.8732 27.5H3.12515C2.78034 27.5 2.5 27.2196 2.5 26.8748V3.12515C2.5 2.78035 2.78036 2.5 3.12515 2.5ZM11.8742 15.3479L14.652 13.4949C14.8631 13.3548 15.1354 13.3548 15.3465 13.4949L18.1243 15.3479V3.75022H11.8744L11.8742 15.3479ZM10.6239 3.75022H3.75039V26.2497H26.2482V3.75022H19.3747V16.516C19.3747 17.0139 18.8172 17.312 18.4031 17.0348L14.9985 14.7662L11.5956 17.0348C11.1815 17.312 10.624 17.0139 10.624 16.516L10.6239 3.75022Z" fill="white" stroke="white" stroke-width="0.5"/>
</svg>
