<svg width="30" height="30" viewBox="0 0 30 30" fill="none" xmlns="http://www.w3.org/2000/svg">
<path fill-rule="evenodd" clip-rule="evenodd" d="M17.2507 0.5V14.016C17.2507 14.5139 16.6932 14.812 16.2791 14.5348L12.8745 12.2662L9.47159 14.5348C9.05751 14.812 8.5 14.5139 8.5 14.016V0.5H1.12515C0.780357 0.5 0.5 0.780345 0.5 1.12515V24.8748C0.5 25.2196 0.780344 25.5 1.12515 25.5H24.8732C25.218 25.5 25.4984 25.2197 25.4984 24.8748V1.12515C25.4984 0.780358 25.218 0.5 24.8732 0.5H17.2507Z" fill="white"/>
<path d="M17.2507 0.5V0.25H17.0007V0.5H17.2507ZM16.2791 14.5348L16.4182 14.3271L16.4177 14.3268L16.2791 14.5348ZM12.8745 12.2662L13.0132 12.0582L12.8745 11.9658L12.7359 12.0582L12.8745 12.2662ZM9.47159 14.5348L9.33292 14.3268L9.33254 14.3271L9.47159 14.5348ZM8.5 0.5H8.75V0.25H8.5V0.5ZM16.4031 15.0348L16.5421 14.8271L16.5417 14.8268L16.4031 15.0348ZM12.9985 12.7662L13.1371 12.5582L12.9985 12.4658L12.8598 12.5582L12.9985 12.7662ZM9.59556 15.0348L9.45689 14.8268L9.45652 14.8271L9.59556 15.0348ZM17.5007 14.016V0.5H17.0007V14.016H17.5007ZM16.14 14.7426C16.7203 15.131 17.5007 14.7136 17.5007 14.016H17.0007C17.0007 14.3141 16.666 14.493 16.4182 14.3271L16.14 14.7426ZM12.7359 12.4742L16.1405 14.7429L16.4177 14.3268L13.0132 12.0582L12.7359 12.4742ZM9.61027 14.7429L13.0132 12.4742L12.7359 12.0582L9.33292 14.3268L9.61027 14.7429ZM8.25 14.016C8.25 14.7137 9.03035 15.131 9.61064 14.7426L9.33254 14.3271C9.08466 14.493 8.75 14.3141 8.75 14.016H8.25ZM8.25 0.5V14.016H8.75V0.5H8.25ZM1.12515 0.75H8.5V0.25H1.12515V0.75ZM0.75 1.12515C0.75 0.918419 0.918425 0.75 1.12515 0.75V0.25C0.642289 0.25 0.25 0.642271 0.25 1.12515H0.75ZM0.75 24.8748V1.12515H0.25V24.8748H0.75ZM1.12515 25.25C0.91842 25.25 0.75 25.0816 0.75 24.8748H0.25C0.25 25.3577 0.642269 25.75 1.12515 25.75V25.25ZM24.8732 25.25H1.12515V25.75H24.8732V25.25ZM25.2484 24.8748C25.2484 25.0816 25.0799 25.25 24.8732 25.25V25.75C25.3561 25.75 25.7484 25.3577 25.7484 24.8748H25.2484ZM25.2484 1.12515V24.8748H25.7484V1.12515H25.2484ZM24.8732 0.75C25.0799 0.75 25.2484 0.918426 25.2484 1.12515H25.7484C25.7484 0.642289 25.3561 0.25 24.8732 0.25V0.75ZM17.2507 0.75H24.8732V0.25H17.2507V0.75ZM17.1247 0.5V14.516H17.6247V0.5H17.1247ZM17.1247 14.516C17.1247 14.8141 16.79 14.993 16.5421 14.8271L16.264 15.2426C16.8443 15.631 17.6247 15.2136 17.6247 14.516H17.1247ZM16.5417 14.8268L13.1371 12.5582L12.8599 12.9742L16.2644 15.2429L16.5417 14.8268ZM12.8598 12.5582L9.45689 14.8268L9.73424 15.2429L13.1372 12.9742L12.8598 12.5582ZM9.45652 14.8271C9.20863 14.993 8.87397 14.8141 8.87397 14.516H8.37397C8.37397 15.2137 9.15432 15.631 9.73461 15.2426L9.45652 14.8271ZM8.87397 14.516V14.3901H8.37397V14.516H8.87397Z" fill="white"/>
<line x1="6.5" y1="1.125" x2="18.5" y2="1.125" stroke="white" stroke-width="1.75"/>
</svg>
