<svg width="30" height="30" viewBox="0 0 24 30" fill="none" xmlns="http://www.w3.org/2000/svg">
<path d="M12.7111 7.87552C13.1505 7.87552 13.5065 7.51949 13.5065 7.08153C13.5065 6.64209 13.1505 6.28606 12.7111 6.28606H5.56059C5.12264 6.28606 4.7666 6.64209 4.7666 7.08153C4.7666 7.51949 5.12263 7.87552 5.56059 7.87552H12.7111Z" fill="white"/>
<path d="M15.1022 12.6408H5.56059C5.12264 12.6408 4.7666 12.2848 4.7666 11.8468C4.7666 11.4074 5.12263 11.0513 5.56059 11.0513H17.4781C17.9175 11.0513 18.2735 11.4074 18.2735 11.8468C18.2735 12.2848 17.9175 12.6408 17.4781 12.6408H15.1022Z" fill="white"/>
<path d="M11.1231 16.6147C11.1231 17.0527 10.767 17.4087 10.3276 17.4087H5.56059C5.12264 17.4087 4.7666 17.0527 4.7666 16.6147C4.7666 16.1753 5.12263 15.8192 5.56059 15.8192H10.3276C10.767 15.8192 11.1231 16.1753 11.1231 16.6147Z" fill="white"/>
<path d="M11.1231 21.3813C11.1231 21.8193 10.767 22.1753 10.3276 22.1753H5.56059C5.12264 22.1753 4.7666 21.8193 4.7666 21.3813C4.7666 20.9419 5.12263 20.5858 5.56059 20.5858H10.3276C10.767 20.5858 11.1231 20.9419 11.1231 21.3813Z" fill="white"/>
<path fill-rule="evenodd" clip-rule="evenodd" d="M12.5428 0.128486C12.1436 -0.0428285 11.6907 -0.0428285 11.2915 0.128486L6.35634 2.24384L2.21516 0.468162C1.16642 0.0197603 0 0.788442 0 1.92953V27.9573C0 29.1773 1.31836 29.9415 2.37754 29.3367L6.35664 27.0635L11.1297 29.7911C11.6183 30.0696 12.2172 30.0696 12.7058 29.7911L17.4789 27.0635L21.458 29.3367C22.5171 29.9415 23.8355 29.1773 23.8355 27.9573V1.92953C23.8355 0.788427 22.6691 0.0197603 21.6204 0.468162L17.4792 2.24384L12.5428 0.128486ZM11.9172 1.58837L16.8523 3.70372C17.2516 3.87504 17.7044 3.87504 18.1036 3.70372L22.2448 1.92953V27.9573L18.2672 25.684C17.7786 25.404 17.1783 25.404 16.6897 25.684L11.9166 28.4116L7.1435 25.684C6.6549 25.404 6.05453 25.404 5.56593 25.684L1.58836 27.9573V1.92953L5.72801 3.70372C6.12874 3.87504 6.58161 3.87504 6.98085 3.70372L11.9172 1.58837Z" fill="white"/>
</svg>
