<svg width="30" height="30" viewBox="0 0 30 30" fill="none" xmlns="http://www.w3.org/2000/svg">
<g clip-path="url(#clip0_1456_4117)">
<path fill-rule="evenodd" clip-rule="evenodd" d="M15.5428 0.128486C15.1436 -0.0428285 14.6907 -0.0428285 14.2915 0.128486L9.35634 2.24384L5.21516 0.468162C4.16642 0.0197602 3 0.788442 3 1.92953V27.9573C3 29.1773 4.31836 29.9415 5.37754 29.3367L9.35664 27.0635L14.1297 29.7911C14.6183 30.0696 15.2172 30.0696 15.7058 29.7911L20.4789 27.0635L24.458 29.3367C25.5171 29.9415 26.8355 29.1773 26.8355 27.9573V1.92953C26.8355 0.788427 25.6691 0.0197602 24.6204 0.468162L20.4792 2.24384L15.5428 0.128486ZM15.7111 7.8756C16.1505 7.8756 16.5065 7.51957 16.5065 7.08161C16.5065 6.64217 16.1505 6.28613 15.7111 6.28613H8.56059C8.12264 6.28613 7.7666 6.64217 7.7666 7.08161C7.7666 7.51956 8.12263 7.8756 8.56059 7.8756H15.7111ZM8.56059 12.6412H18.1022H20.4781C20.9175 12.6412 21.2735 12.2852 21.2735 11.8472C21.2735 11.4078 20.9175 11.0518 20.4781 11.0518H8.56059C8.12263 11.0518 7.7666 11.4078 7.7666 11.8472C7.7666 12.2852 8.12264 12.6412 8.56059 12.6412ZM14.1231 16.6148C14.1231 17.0528 13.767 17.4088 13.3276 17.4088H8.56059C8.12264 17.4088 7.7666 17.0528 7.7666 16.6148C7.7666 16.1754 8.12263 15.8193 8.56059 15.8193H13.3276C13.767 15.8193 14.1231 16.1754 14.1231 16.6148ZM13.3276 22.1754C13.767 22.1754 14.1231 21.8194 14.1231 21.3814C14.1231 20.942 13.767 20.5859 13.3276 20.5859H8.56059C8.12263 20.5859 7.7666 20.942 7.7666 21.3814C7.7666 21.8194 8.12264 22.1754 8.56059 22.1754H13.3276Z" fill="white"/>
</g>
<defs>
<clipPath id="clip0_1456_4117">
<rect width="30" height="30" fill="white"/>
</clipPath>
</defs>
</svg>
