<svg width="30" height="30" viewBox="0 0 32 32" fill="none" xmlns="http://www.w3.org/2000/svg">
<path d="M30.1868 5.81733L26.1823 1.81285C25.0961 0.72905 23.3386 0.72905 22.2523 1.81285L2.82674 21.2385C2.69322 21.372 2.6042 21.5416 2.56811 21.7256L1.01636 29.8873C0.964638 30.1616 1.03681 30.4455 1.21484 30.6608C1.39287 30.8749 1.65751 31 1.9366 31C1.99554 31 2.05448 30.994 2.11222 30.9832L10.2739 29.4314C10.458 29.3965 10.6276 29.3063 10.7611 29.1728L30.1867 9.74718C31.2705 8.66098 31.2705 6.90352 30.1867 5.81723L30.1868 5.81733ZM4.08037 23.8162L8.18216 27.9205L3.11559 28.884L4.08037 23.8162ZM28.8626 8.41913L10.0985 27.1845L4.81543 21.9015L23.5783 3.13854C23.932 2.7861 24.5034 2.7861 24.857 3.13854L28.8615 7.14302C29.2139 7.49666 29.2139 8.06805 28.8615 8.42169L28.8626 8.41913Z" fill="#1162DD" stroke="#1162DD"/>
</svg>
