<svg width="30" height="30" viewBox="0 0 32 32" fill="none" xmlns="http://www.w3.org/2000/svg">
<path d="M11.2684 13.3151C10.9641 13.3439 10.6843 13.4939 10.491 13.7305C10.2963 13.967 10.2054 14.2713 10.2357 14.5757L11.0044 22.2674L11.0059 22.2689C11.0636 22.8588 11.5583 23.3073 12.1511 23.3088C12.19 23.3102 12.229 23.3102 12.2679 23.3088C12.5722 23.2785 12.852 23.1285 13.0468 22.892C13.24 22.6554 13.3309 22.3511 13.3006 22.0468L12.5319 14.355C12.5059 14.0478 12.3573 13.7636 12.1194 13.5675C11.8814 13.3713 11.5742 13.2805 11.2684 13.3151L11.2684 13.3151Z" fill="#1162DD" stroke="#1162DD" stroke-width="0.75"/>
<path d="M20.7303 13.3145C20.4245 13.277 20.1173 13.3665 19.8793 13.5626C19.6399 13.7573 19.4914 14.0415 19.4668 14.3472L18.6981 22.039V22.0404C18.6678 22.3448 18.7587 22.6491 18.9519 22.8857C19.1467 23.1222 19.4265 23.2722 19.7308 23.301C19.7697 23.3039 19.8087 23.3039 19.8476 23.301C20.439 23.301 20.9351 22.851 20.9928 22.2611L21.7616 14.5693H21.763C21.8236 13.9376 21.3621 13.3766 20.7303 13.3146L20.7303 13.3145Z" fill="#1162DD" stroke="#1162DD" stroke-width="0.75"/>
<path d="M29.8461 7.19431H24.8456V3.69279C24.8442 2.20579 23.6399 1.00144 22.1543 1H9.84567C8.36011 1.00144 7.15576 2.20576 7.15432 3.69279V7.19431H2.15384C1.51633 7.19431 1 7.71065 1 8.34816C1 8.98567 1.51633 9.502 2.15384 9.502H2.68173L5.26922 27.3279C5.55479 29.4265 7.34469 30.9942 9.46329 31H22.5407C24.6594 30.9942 26.4479 29.4279 26.7333 27.3293L29.3179 9.50196H29.8458C30.4833 9.50196 30.9996 8.98563 30.9996 8.34812C30.9996 7.71061 30.4836 7.19431 29.8461 7.19431ZM9.46207 3.69279C9.46207 3.47933 9.63371 3.30768 9.84574 3.30768H22.1544C22.2553 3.30768 22.3534 3.34807 22.4255 3.42018C22.4976 3.4923 22.538 3.59038 22.538 3.69278V7.1943H9.46214L9.46207 3.69279ZM24.4432 27.0248C24.3134 27.9781 23.4999 28.6906 22.5365 28.6921H9.45908C8.49562 28.6906 7.68361 27.9781 7.55379 27.0248L5.00958 9.502H26.9902L24.4432 27.0248Z" fill="#1162DD" stroke="#1162DD" stroke-width="0.75"/>
</svg>
