<svg width="33" height="33" viewBox="0 0 33 33" fill="none" xmlns="http://www.w3.org/2000/svg">
<path d="M16.5 0C12.1235 0 7.9266 1.73894 4.83285 4.83285C1.7391 7.92677 0 12.1239 0 16.5C0 20.8761 1.73894 25.0734 4.83285 28.1672C7.92677 31.2609 12.1239 33 16.5 33C20.8761 33 25.0734 31.2611 28.1672 28.1672C31.2609 25.0732 33 20.8761 33 16.5C33 12.1239 31.2611 7.9266 28.1672 4.83285C25.0732 1.7391 20.8761 0 16.5 0ZM9.28125 14.4375C10.1153 14.4375 10.8681 14.9402 11.1865 15.7111C11.5062 16.482 11.3296 17.3688 10.7392 17.9579C10.15 18.5483 9.26317 18.7249 8.49232 18.4053C7.72147 18.0869 7.21872 17.334 7.21872 16.5C7.21872 15.3605 8.14173 14.4375 9.28125 14.4375ZM14.4375 16.5C14.4375 15.666 14.9402 14.9132 15.7111 14.5948C16.482 14.2751 17.3688 14.4517 17.9579 15.0421C18.5483 15.6312 18.7249 16.5181 18.4053 17.2889C18.0869 18.0598 17.334 18.5625 16.5 18.5625C15.3605 18.5625 14.4375 17.6395 14.4375 16.5ZM23.7188 18.5625C22.8847 18.5625 22.1319 18.0598 21.8135 17.2889C21.4938 16.5181 21.6704 15.6312 22.2608 15.0421C22.85 14.4517 23.7368 14.2751 24.5077 14.5947C25.2785 14.9131 25.7813 15.666 25.7813 16.5C25.7813 17.0465 25.5634 17.5712 25.1767 17.9579C24.79 18.3446 24.2653 18.5625 23.7188 18.5625Z" fill="#5C9DFF"/>
</svg>
