<svg width="375" height="327" viewBox="0 0 375 327" fill="none" xmlns="http://www.w3.org/2000/svg">
<rect x="0.5" y="0.500244" width="374" height="325.613" rx="7.5" fill="#F7FAFB"/>
<path d="M135.135 82.0002H236.865C241.663 82.0002 246.028 83.9634 249.189 87.1303C252.356 90.2854 254.319 94.6563 254.319 99.4602V163.062C254.319 167.854 252.356 172.219 249.195 175.386L249.183 175.397C246.016 178.558 241.657 180.522 236.865 180.522H135.135C130.337 180.522 125.972 178.558 122.811 175.392C119.644 172.236 117.681 167.871 117.681 163.068V99.4662C117.681 94.6622 119.644 90.2913 122.805 87.1303C125.966 83.9693 130.337 82.0062 135.135 82.0062L135.135 82.0002ZM177.795 101.399C178.495 100.693 179.634 100.693 180.334 101.393C181.039 102.093 181.039 103.232 180.34 103.931L178.329 105.942C177.629 106.642 176.491 106.648 175.791 105.948C175.085 105.248 175.085 104.109 175.785 103.41L177.795 101.399ZM163.74 115.449C164.439 114.749 165.584 114.749 166.284 115.449C166.99 116.155 166.99 117.293 166.284 117.999L164.273 120.01C163.568 120.715 162.429 120.715 161.723 120.01C161.023 119.31 161.023 118.165 161.723 117.465L163.74 115.449ZM161.729 103.937C161.023 103.232 161.023 102.093 161.729 101.393C162.429 100.687 163.573 100.687 164.273 101.393L166.284 103.398C166.984 104.103 166.984 105.242 166.284 105.948C165.578 106.648 164.439 106.648 163.734 105.948L161.729 103.937ZM175.785 117.993C175.085 117.287 175.085 116.149 175.785 115.443C176.491 114.743 177.629 114.743 178.335 115.443L180.345 117.453C181.051 118.153 181.051 119.298 180.345 119.998C179.646 120.703 178.501 120.703 177.801 119.998L175.791 117.987L175.785 117.993ZM156.837 112.495C155.841 112.495 155.034 111.689 155.034 110.692C155.034 109.696 155.841 108.89 156.837 108.89H162.519C163.515 108.89 164.321 109.696 164.321 110.692C164.321 111.689 163.515 112.495 162.519 112.495H156.837ZM179.558 112.495C178.561 112.495 177.755 111.689 177.755 110.692C177.755 109.696 178.561 108.89 179.558 108.89H185.239C186.236 108.89 187.042 109.696 187.042 110.692C187.042 111.689 186.236 112.495 185.239 112.495H179.558ZM169.238 96.4945C169.238 95.4981 170.045 94.6915 171.041 94.6915C172.037 94.6915 172.844 95.4981 172.844 96.4945V102.176C172.844 103.172 172.037 103.979 171.041 103.979C170.045 103.979 169.238 103.172 169.238 102.176V96.4945ZM169.238 119.215C169.238 118.219 170.045 117.412 171.041 117.412C172.037 117.412 172.844 118.219 172.844 119.215V124.897C172.844 125.893 172.037 126.7 171.041 126.7C170.045 126.7 169.238 125.893 169.238 124.897V119.215ZM171.041 105.895C173.692 105.895 175.845 108.042 175.845 110.699C175.845 113.35 173.698 115.503 171.041 115.503C168.39 115.503 166.237 113.356 166.237 110.699C166.237 108.048 168.384 105.895 171.041 105.895ZM154.767 127.571L172.945 142.421L210.883 109.352C212.704 107.763 215.414 107.858 217.122 109.501L249.771 141.017V99.4603C249.771 95.9138 248.318 92.6875 245.975 90.3448C243.645 88.0022 240.412 86.5492 236.866 86.5492H135.136C131.59 86.5492 128.364 88.0022 126.027 90.3448C123.69 92.6816 122.237 95.9138 122.237 99.4603V150.618L148.825 127.66C150.545 126.172 153.054 126.184 154.762 127.571L154.767 127.571Z" fill="#CFD0D0"/>
<path d="M70.7424 224.521H69.4498L73.1884 214.34H74.4611L78.1998 224.521H76.9071L73.8645 215.95H73.785L70.7424 224.521ZM71.2196 220.544H76.4299V221.638H71.2196V220.544ZM83.5641 227.385V216.885H84.6976V218.098H84.8368C84.923 217.966 85.0423 217.797 85.1948 217.591C85.3506 217.382 85.5726 217.197 85.861 217.034C86.1526 216.869 86.5471 216.786 87.0442 216.786C87.6872 216.786 88.254 216.946 88.7445 217.268C89.235 217.589 89.6178 218.045 89.8929 218.635C90.168 219.225 90.3056 219.921 90.3056 220.723C90.3056 221.532 90.168 222.233 89.8929 222.826C89.6178 223.416 89.2367 223.874 88.7495 224.198C88.2623 224.52 87.7005 224.681 87.0641 224.681C86.5736 224.681 86.1808 224.599 85.8858 224.437C85.5908 224.271 85.3638 224.084 85.2047 223.875C85.0456 223.663 84.923 223.487 84.8368 223.348H84.7374V227.385H83.5641ZM84.7175 220.703C84.7175 221.28 84.802 221.789 84.9711 222.23C85.1401 222.667 85.387 223.01 85.7118 223.259C86.0366 223.504 86.4344 223.627 86.905 223.627C87.3955 223.627 87.8049 223.497 88.133 223.239C88.4644 222.977 88.713 222.626 88.8787 222.185C89.0478 221.741 89.1323 221.247 89.1323 220.703C89.1323 220.166 89.0494 219.682 88.8837 219.252C88.7213 218.817 88.4744 218.474 88.1429 218.222C87.8148 217.967 87.4022 217.84 86.905 217.84C86.4277 217.84 86.0267 217.961 85.7019 218.203C85.3771 218.441 85.1318 218.776 84.9661 219.207C84.8004 219.634 84.7175 220.133 84.7175 220.703ZM92.0953 224.521V216.885H93.2289V218.039H93.3084C93.4476 217.661 93.6995 217.354 94.0641 217.119C94.4287 216.883 94.8397 216.766 95.2971 216.766C95.3832 216.766 95.4909 216.767 95.6202 216.771C95.7495 216.774 95.8472 216.779 95.9135 216.786V217.979C95.8738 217.969 95.7826 217.954 95.6401 217.934C95.5009 217.911 95.3534 217.899 95.1976 217.899C94.8264 217.899 94.495 217.977 94.2033 218.133C93.915 218.285 93.6863 218.498 93.5172 218.769C93.3515 219.038 93.2686 219.344 93.2686 219.689V224.521H92.0953ZM100.274 224.681C99.5378 224.681 98.9031 224.518 98.3695 224.193C97.8392 223.865 97.4299 223.408 97.1415 222.821C96.8565 222.231 96.714 221.545 96.714 220.763C96.714 219.981 96.8565 219.291 97.1415 218.695C97.4299 218.095 97.8309 217.628 98.3446 217.293C98.8617 216.955 99.4649 216.786 100.154 216.786C100.552 216.786 100.945 216.852 101.333 216.985C101.72 217.117 102.073 217.333 102.392 217.631C102.71 217.926 102.963 218.317 103.152 218.804C103.341 219.291 103.436 219.891 103.436 220.604V221.101H97.5492V220.087H102.242C102.242 219.656 102.156 219.271 101.984 218.933C101.815 218.595 101.573 218.329 101.258 218.133C100.946 217.937 100.579 217.84 100.154 217.84C99.687 217.84 99.2826 217.956 98.9412 218.188C98.6032 218.416 98.343 218.715 98.1607 219.083C97.9784 219.45 97.8873 219.845 97.8873 220.266V220.942C97.8873 221.519 97.9867 222.008 98.1855 222.409C98.3877 222.806 98.6678 223.11 99.0257 223.318C99.3837 223.524 99.7997 223.627 100.274 223.627C100.582 223.627 100.86 223.584 101.109 223.497C101.361 223.408 101.578 223.275 101.76 223.1C101.942 222.921 102.083 222.699 102.183 222.433L103.316 222.752C103.197 223.136 102.996 223.474 102.715 223.766C102.433 224.054 102.085 224.28 101.671 224.442C101.256 224.601 100.791 224.681 100.274 224.681ZM111.232 216.885L108.408 224.521H107.215L104.391 216.885H105.664L107.772 222.97H107.852L109.96 216.885H111.232ZM112.781 224.521V216.885H113.954V224.521H112.781ZM113.377 215.612C113.149 215.612 112.952 215.535 112.786 215.379C112.623 215.223 112.542 215.036 112.542 214.817C112.542 214.598 112.623 214.411 112.786 214.255C112.952 214.099 113.149 214.021 113.377 214.021C113.606 214.021 113.802 214.099 113.964 214.255C114.13 214.411 114.213 214.598 114.213 214.817C114.213 215.036 114.13 215.223 113.964 215.379C113.802 215.535 113.606 215.612 113.377 215.612ZM119.305 224.681C118.569 224.681 117.934 224.518 117.401 224.193C116.87 223.865 116.461 223.408 116.173 222.821C115.888 222.231 115.745 221.545 115.745 220.763C115.745 219.981 115.888 219.291 116.173 218.695C116.461 218.095 116.862 217.628 117.376 217.293C117.893 216.955 118.496 216.786 119.186 216.786C119.583 216.786 119.976 216.852 120.364 216.985C120.752 217.117 121.105 217.333 121.423 217.631C121.741 217.926 121.994 218.317 122.183 218.804C122.372 219.291 122.467 219.891 122.467 220.604V221.101H116.58V220.087H121.274C121.274 219.656 121.187 219.271 121.015 218.933C120.846 218.595 120.604 218.329 120.289 218.133C119.978 217.937 119.61 217.84 119.186 217.84C118.718 217.84 118.314 217.956 117.972 218.188C117.634 218.416 117.374 218.715 117.192 219.083C117.01 219.45 116.919 219.845 116.919 220.266V220.942C116.919 221.519 117.018 222.008 117.217 222.409C117.419 222.806 117.699 223.11 118.057 223.318C118.415 223.524 118.831 223.627 119.305 223.627C119.613 223.627 119.892 223.584 120.14 223.497C120.392 223.408 120.609 223.275 120.791 223.1C120.974 222.921 121.115 222.699 121.214 222.433L122.347 222.752C122.228 223.136 122.028 223.474 121.746 223.766C121.464 224.054 121.116 224.28 120.702 224.442C120.288 224.601 119.822 224.681 119.305 224.681ZM125.982 224.521L123.655 216.885H124.888L126.539 222.732H126.618L128.249 216.885H129.502L131.112 222.712H131.192L132.843 216.885H134.075L131.749 224.521H130.595L128.925 218.655H128.806L127.135 224.521H125.982ZM142.666 224.681C141.977 224.681 141.372 224.517 140.852 224.188C140.335 223.86 139.93 223.401 139.639 222.811C139.35 222.221 139.206 221.532 139.206 220.743C139.206 219.948 139.35 219.253 139.639 218.66C139.93 218.067 140.335 217.606 140.852 217.278C141.372 216.95 141.977 216.786 142.666 216.786C143.356 216.786 143.959 216.95 144.476 217.278C144.996 217.606 145.401 218.067 145.689 218.66C145.981 219.253 146.127 219.948 146.127 220.743C146.127 221.532 145.981 222.221 145.689 222.811C145.401 223.401 144.996 223.86 144.476 224.188C143.959 224.517 143.356 224.681 142.666 224.681ZM142.666 223.627C143.19 223.627 143.621 223.492 143.959 223.224C144.297 222.955 144.547 222.602 144.71 222.165C144.872 221.727 144.953 221.253 144.953 220.743C144.953 220.233 144.872 219.757 144.71 219.316C144.547 218.875 144.297 218.519 143.959 218.247C143.621 217.976 143.19 217.84 142.666 217.84C142.143 217.84 141.712 217.976 141.374 218.247C141.036 218.519 140.785 218.875 140.623 219.316C140.461 219.757 140.379 220.233 140.379 220.743C140.379 221.253 140.461 221.727 140.623 222.165C140.785 222.602 141.036 222.955 141.374 223.224C141.712 223.492 142.143 223.627 142.666 223.627ZM151.318 216.885V217.879H147.202V216.885H151.318ZM148.435 224.521V215.831C148.435 215.394 148.537 215.029 148.743 214.737C148.948 214.446 149.215 214.227 149.543 214.081C149.871 213.935 150.218 213.862 150.582 213.862C150.871 213.862 151.106 213.886 151.288 213.932C151.471 213.978 151.607 214.021 151.696 214.061L151.358 215.075C151.298 215.056 151.215 215.031 151.109 215.001C151.007 214.971 150.871 214.956 150.702 214.956C150.314 214.956 150.034 215.054 149.862 215.249C149.692 215.445 149.608 215.732 149.608 216.11V224.521H148.435ZM157.656 227.385C157.457 227.385 157.28 227.369 157.124 227.335C156.968 227.306 156.86 227.276 156.801 227.246L157.099 226.212C157.384 226.285 157.636 226.311 157.855 226.291C158.073 226.271 158.267 226.174 158.436 225.998C158.609 225.826 158.766 225.546 158.909 225.158L159.127 224.561L156.303 216.885H157.576L159.684 222.97H159.764L161.872 216.885H163.144L159.903 225.635C159.757 226.03 159.576 226.356 159.361 226.615C159.146 226.876 158.895 227.07 158.61 227.196C158.329 227.322 158.01 227.385 157.656 227.385ZM167.522 224.681C166.832 224.681 166.228 224.517 165.707 224.188C165.19 223.86 164.786 223.401 164.494 222.811C164.206 222.221 164.062 221.532 164.062 220.743C164.062 219.948 164.206 219.253 164.494 218.66C164.786 218.067 165.19 217.606 165.707 217.278C166.228 216.95 166.832 216.786 167.522 216.786C168.211 216.786 168.814 216.95 169.331 217.278C169.852 217.606 170.256 218.067 170.545 218.66C170.836 219.253 170.982 219.948 170.982 220.743C170.982 221.532 170.836 222.221 170.545 222.811C170.256 223.401 169.852 223.86 169.331 224.188C168.814 224.517 168.211 224.681 167.522 224.681ZM167.522 223.627C168.046 223.627 168.476 223.492 168.814 223.224C169.153 222.955 169.403 222.602 169.565 222.165C169.728 221.727 169.809 221.253 169.809 220.743C169.809 220.233 169.728 219.757 169.565 219.316C169.403 218.875 169.153 218.519 168.814 218.247C168.476 217.976 168.046 217.84 167.522 217.84C166.998 217.84 166.567 217.976 166.229 218.247C165.891 218.519 165.641 218.875 165.479 219.316C165.316 219.757 165.235 220.233 165.235 220.743C165.235 221.253 165.316 221.727 165.479 222.165C165.641 222.602 165.891 222.955 166.229 223.224C166.567 223.492 166.998 223.627 167.522 223.627ZM177.586 221.399V216.885H178.759V224.521H177.586V223.229H177.506C177.327 223.617 177.049 223.946 176.671 224.218C176.293 224.487 175.816 224.621 175.239 224.621C174.762 224.621 174.337 224.517 173.966 224.308C173.595 224.096 173.303 223.777 173.091 223.353C172.879 222.926 172.773 222.387 172.773 221.737V216.885H173.946V221.658C173.946 222.215 174.102 222.659 174.414 222.99C174.729 223.322 175.13 223.487 175.617 223.487C175.908 223.487 176.205 223.413 176.507 223.264C176.812 223.115 177.067 222.886 177.272 222.578C177.481 222.269 177.586 221.877 177.586 221.399ZM180.908 224.521V216.885H182.041V218.039H182.121C182.26 217.661 182.512 217.354 182.877 217.119C183.241 216.883 183.652 216.766 184.11 216.766C184.196 216.766 184.303 216.767 184.433 216.771C184.562 216.774 184.66 216.779 184.726 216.786V217.979C184.686 217.969 184.595 217.954 184.453 217.934C184.313 217.911 184.166 217.899 184.01 217.899C183.639 217.899 183.307 217.977 183.016 218.133C182.727 218.285 182.499 218.498 182.33 218.769C182.164 219.038 182.081 219.344 182.081 219.689V224.521H180.908ZM190.054 227.385V216.885H191.188V218.098H191.327C191.413 217.966 191.533 217.797 191.685 217.591C191.841 217.382 192.063 217.197 192.351 217.034C192.643 216.869 193.037 216.786 193.534 216.786C194.177 216.786 194.744 216.946 195.235 217.268C195.725 217.589 196.108 218.045 196.383 218.635C196.658 219.225 196.796 219.921 196.796 220.723C196.796 221.532 196.658 222.233 196.383 222.826C196.108 223.416 195.727 223.874 195.24 224.198C194.752 224.52 194.191 224.681 193.554 224.681C193.064 224.681 192.671 224.599 192.376 224.437C192.081 224.271 191.854 224.084 191.695 223.875C191.536 223.663 191.413 223.487 191.327 223.348H191.228V227.385H190.054ZM191.208 220.703C191.208 221.28 191.292 221.789 191.461 222.23C191.63 222.667 191.877 223.01 192.202 223.259C192.527 223.504 192.925 223.627 193.395 223.627C193.886 223.627 194.295 223.497 194.623 223.239C194.955 222.977 195.203 222.626 195.369 222.185C195.538 221.741 195.623 221.247 195.623 220.703C195.623 220.166 195.54 219.682 195.374 219.252C195.212 218.817 194.965 218.474 194.633 218.222C194.305 217.967 193.892 217.84 193.395 217.84C192.918 217.84 192.517 217.961 192.192 218.203C191.867 218.441 191.622 218.776 191.456 219.207C191.291 219.634 191.208 220.133 191.208 220.703ZM199.759 219.928V224.521H198.586V214.34H199.759V218.078H199.858C200.037 217.684 200.306 217.371 200.664 217.139C201.025 216.903 201.506 216.786 202.105 216.786C202.626 216.786 203.082 216.89 203.473 217.099C203.864 217.304 204.167 217.621 204.382 218.048C204.601 218.473 204.711 219.013 204.711 219.669V224.521H203.537V219.749C203.537 219.142 203.38 218.673 203.065 218.342C202.753 218.007 202.321 217.84 201.767 217.84C201.383 217.84 201.038 217.921 200.733 218.083C200.432 218.246 200.193 218.483 200.017 218.794C199.845 219.106 199.759 219.484 199.759 219.928ZM209.959 224.681C209.27 224.681 208.665 224.517 208.145 224.188C207.628 223.86 207.223 223.401 206.932 222.811C206.643 222.221 206.499 221.532 206.499 220.743C206.499 219.948 206.643 219.253 206.932 218.66C207.223 218.067 207.628 217.606 208.145 217.278C208.665 216.95 209.27 216.786 209.959 216.786C210.649 216.786 211.252 216.95 211.769 217.278C212.289 217.606 212.694 218.067 212.982 218.66C213.274 219.253 213.42 219.948 213.42 220.743C213.42 221.532 213.274 222.221 212.982 222.811C212.694 223.401 212.289 223.86 211.769 224.188C211.252 224.517 210.649 224.681 209.959 224.681ZM209.959 223.627C210.483 223.627 210.914 223.492 211.252 223.224C211.59 222.955 211.84 222.602 212.003 222.165C212.165 221.727 212.246 221.253 212.246 220.743C212.246 220.233 212.165 219.757 212.003 219.316C211.84 218.875 211.59 218.519 211.252 218.247C210.914 217.976 210.483 217.84 209.959 217.84C209.436 217.84 209.005 217.976 208.667 218.247C208.329 218.519 208.078 218.875 207.916 219.316C207.754 219.757 207.672 220.233 207.672 220.743C207.672 221.253 207.754 221.727 207.916 222.165C208.078 222.602 208.329 222.955 208.667 223.224C209.005 223.492 209.436 223.627 209.959 223.627ZM218.532 216.885V217.879H214.574V216.885H218.532ZM215.728 215.056H216.901V222.334C216.901 222.665 216.949 222.914 217.045 223.08C217.145 223.242 217.27 223.352 217.423 223.408C217.579 223.461 217.743 223.487 217.915 223.487C218.044 223.487 218.15 223.481 218.233 223.468C218.316 223.451 218.382 223.438 218.432 223.428L218.671 224.482C218.591 224.512 218.48 224.541 218.338 224.571C218.195 224.604 218.015 224.621 217.796 224.621C217.464 224.621 217.14 224.55 216.821 224.407C216.507 224.265 216.245 224.048 216.036 223.756C215.83 223.464 215.728 223.096 215.728 222.652V215.056ZM223.317 224.681C222.627 224.681 222.022 224.517 221.502 224.188C220.985 223.86 220.581 223.401 220.289 222.811C220.001 222.221 219.857 221.532 219.857 220.743C219.857 219.948 220.001 219.253 220.289 218.66C220.581 218.067 220.985 217.606 221.502 217.278C222.022 216.95 222.627 216.786 223.317 216.786C224.006 216.786 224.609 216.95 225.126 217.278C225.647 217.606 226.051 218.067 226.339 218.66C226.631 219.253 226.777 219.948 226.777 220.743C226.777 221.532 226.631 222.221 226.339 222.811C226.051 223.401 225.647 223.86 225.126 224.188C224.609 224.517 224.006 224.681 223.317 224.681ZM223.317 223.627C223.84 223.627 224.271 223.492 224.609 223.224C224.947 222.955 225.198 222.602 225.36 222.165C225.522 221.727 225.604 221.253 225.604 220.743C225.604 220.233 225.522 219.757 225.36 219.316C225.198 218.875 224.947 218.519 224.609 218.247C224.271 217.976 223.84 217.84 223.317 217.84C222.793 217.84 222.362 217.976 222.024 218.247C221.686 218.519 221.436 218.875 221.273 219.316C221.111 219.757 221.03 220.233 221.03 220.743C221.03 221.253 221.111 221.727 221.273 222.165C221.436 222.602 221.686 222.955 222.024 223.224C222.362 223.492 222.793 223.627 223.317 223.627ZM234.236 224.521L231.909 216.885H233.142L234.792 222.732H234.872L236.503 216.885H237.756L239.366 222.712H239.446L241.096 216.885H242.329L240.003 224.521H238.849L237.179 218.655H237.059L235.389 224.521H234.236ZM243.881 224.521V216.885H245.054V224.521H243.881ZM244.477 215.612C244.248 215.612 244.051 215.535 243.885 215.379C243.723 215.223 243.642 215.036 243.642 214.817C243.642 214.598 243.723 214.411 243.885 214.255C244.051 214.099 244.248 214.021 244.477 214.021C244.706 214.021 244.901 214.099 245.064 214.255C245.229 214.411 245.312 214.598 245.312 214.817C245.312 215.036 245.229 215.223 245.064 215.379C244.901 215.535 244.706 215.612 244.477 215.612ZM248.376 214.34V224.521H247.203V214.34H248.376ZM251.698 214.34V224.521H250.525V214.34H251.698ZM260.032 224.7C259.548 224.7 259.109 224.609 258.714 224.427C258.32 224.241 258.007 223.975 257.775 223.627C257.543 223.275 257.427 222.851 257.427 222.354C257.427 221.916 257.513 221.562 257.685 221.29C257.858 221.015 258.088 220.799 258.376 220.644C258.665 220.488 258.983 220.372 259.331 220.296C259.682 220.216 260.035 220.153 260.39 220.107C260.854 220.047 261.23 220.002 261.518 219.972C261.81 219.939 262.022 219.885 262.155 219.808C262.291 219.732 262.359 219.6 262.359 219.411V219.371C262.359 218.88 262.224 218.499 261.956 218.227C261.691 217.956 261.288 217.82 260.748 217.82C260.188 217.82 259.749 217.942 259.43 218.188C259.112 218.433 258.888 218.695 258.759 218.973L257.646 218.575C257.844 218.111 258.11 217.75 258.441 217.492C258.776 217.23 259.14 217.048 259.535 216.945C259.933 216.839 260.324 216.786 260.708 216.786C260.953 216.786 261.235 216.816 261.553 216.875C261.875 216.932 262.185 217.049 262.483 217.228C262.785 217.407 263.035 217.677 263.234 218.039C263.433 218.4 263.532 218.884 263.532 219.49V224.521H262.359V223.487H262.299C262.219 223.653 262.087 223.83 261.901 224.019C261.716 224.208 261.469 224.369 261.161 224.502C260.852 224.634 260.476 224.7 260.032 224.7ZM260.211 223.646C260.675 223.646 261.066 223.555 261.384 223.373C261.706 223.191 261.948 222.955 262.11 222.667C262.276 222.379 262.359 222.075 262.359 221.757V220.683C262.309 220.743 262.2 220.798 262.031 220.847C261.865 220.894 261.673 220.935 261.454 220.972C261.238 221.005 261.028 221.035 260.822 221.061C260.62 221.084 260.456 221.104 260.33 221.121C260.025 221.161 259.74 221.225 259.475 221.315C259.213 221.401 259.001 221.532 258.839 221.708C258.68 221.88 258.6 222.115 258.6 222.414C258.6 222.821 258.751 223.129 259.053 223.338C259.357 223.544 259.744 223.646 260.211 223.646ZM265.673 227.385V216.885H266.807V218.098H266.946C267.032 217.966 267.152 217.797 267.304 217.591C267.46 217.382 267.682 217.197 267.97 217.034C268.262 216.869 268.656 216.786 269.154 216.786C269.797 216.786 270.363 216.946 270.854 217.268C271.344 217.589 271.727 218.045 272.002 218.635C272.277 219.225 272.415 219.921 272.415 220.723C272.415 221.532 272.277 222.233 272.002 222.826C271.727 223.416 271.346 223.874 270.859 224.198C270.372 224.52 269.81 224.681 269.173 224.681C268.683 224.681 268.29 224.599 267.995 224.437C267.7 224.271 267.473 224.084 267.314 223.875C267.155 223.663 267.032 223.487 266.946 223.348H266.847V227.385H265.673ZM266.827 220.703C266.827 221.28 266.911 221.789 267.08 222.23C267.249 222.667 267.496 223.01 267.821 223.259C268.146 223.504 268.544 223.627 269.014 223.627C269.505 223.627 269.914 223.497 270.242 223.239C270.574 222.977 270.822 222.626 270.988 222.185C271.157 221.741 271.242 221.247 271.242 220.703C271.242 220.166 271.159 219.682 270.993 219.252C270.831 218.817 270.584 218.474 270.252 218.222C269.924 217.967 269.512 217.84 269.014 217.84C268.537 217.84 268.136 217.961 267.811 218.203C267.486 218.441 267.241 218.776 267.075 219.207C266.91 219.634 266.827 220.133 266.827 220.703ZM274.205 227.385V216.885H275.338V218.098H275.477C275.564 217.966 275.683 217.797 275.835 217.591C275.991 217.382 276.213 217.197 276.502 217.034C276.793 216.869 277.188 216.786 277.685 216.786C278.328 216.786 278.895 216.946 279.385 217.268C279.876 217.589 280.258 218.045 280.534 218.635C280.809 219.225 280.946 219.921 280.946 220.723C280.946 221.532 280.809 222.233 280.534 222.826C280.258 223.416 279.877 223.874 279.39 224.198C278.903 224.52 278.341 224.681 277.705 224.681C277.214 224.681 276.821 224.599 276.526 224.437C276.231 224.271 276.004 224.084 275.845 223.875C275.686 223.663 275.564 223.487 275.477 223.348H275.378V227.385H274.205ZM275.358 220.703C275.358 221.28 275.443 221.789 275.612 222.23C275.781 222.667 276.028 223.01 276.352 223.259C276.677 223.504 277.075 223.627 277.546 223.627C278.036 223.627 278.445 223.497 278.774 223.239C279.105 222.977 279.354 222.626 279.519 222.185C279.688 221.741 279.773 221.247 279.773 220.703C279.773 220.166 279.69 219.682 279.524 219.252C279.362 218.817 279.115 218.474 278.784 218.222C278.455 217.967 278.043 217.84 277.546 217.84C277.068 217.84 276.667 217.961 276.343 218.203C276.018 218.441 275.772 218.776 275.607 219.207C275.441 219.634 275.358 220.133 275.358 220.703ZM285.938 224.681C285.202 224.681 284.567 224.518 284.034 224.193C283.503 223.865 283.094 223.408 282.806 222.821C282.521 222.231 282.378 221.545 282.378 220.763C282.378 219.981 282.521 219.291 282.806 218.695C283.094 218.095 283.495 217.628 284.009 217.293C284.526 216.955 285.129 216.786 285.818 216.786C286.216 216.786 286.609 216.852 286.997 216.985C287.384 217.117 287.737 217.333 288.056 217.631C288.374 217.926 288.627 218.317 288.816 218.804C289.005 219.291 289.1 219.891 289.1 220.604V221.101H283.213V220.087H287.906C287.906 219.656 287.82 219.271 287.648 218.933C287.479 218.595 287.237 218.329 286.922 218.133C286.61 217.937 286.243 217.84 285.818 217.84C285.351 217.84 284.947 217.956 284.605 218.188C284.267 218.416 284.007 218.715 283.825 219.083C283.642 219.45 283.551 219.845 283.551 220.266V220.942C283.551 221.519 283.651 222.008 283.85 222.409C284.052 222.806 284.332 223.11 284.69 223.318C285.048 223.524 285.464 223.627 285.938 223.627C286.246 223.627 286.524 223.584 286.773 223.497C287.025 223.408 287.242 223.275 287.424 223.1C287.606 222.921 287.747 222.699 287.847 222.433L288.98 222.752C288.861 223.136 288.66 223.474 288.379 223.766C288.097 224.054 287.749 224.28 287.335 224.442C286.92 224.601 286.455 224.681 285.938 224.681ZM293.132 224.7C292.648 224.7 292.209 224.609 291.814 224.427C291.42 224.241 291.106 223.975 290.874 223.627C290.642 223.275 290.526 222.851 290.526 222.354C290.526 221.916 290.613 221.562 290.785 221.29C290.957 221.015 291.188 220.799 291.476 220.644C291.764 220.488 292.083 220.372 292.431 220.296C292.782 220.216 293.135 220.153 293.49 220.107C293.954 220.047 294.33 220.002 294.618 219.972C294.91 219.939 295.122 219.885 295.254 219.808C295.39 219.732 295.458 219.6 295.458 219.411V219.371C295.458 218.88 295.324 218.499 295.056 218.227C294.79 217.956 294.388 217.82 293.847 217.82C293.287 217.82 292.848 217.942 292.53 218.188C292.212 218.433 291.988 218.695 291.859 218.973L290.745 218.575C290.944 218.111 291.209 217.75 291.541 217.492C291.875 217.23 292.24 217.048 292.634 216.945C293.032 216.839 293.423 216.786 293.808 216.786C294.053 216.786 294.335 216.816 294.653 216.875C294.974 216.932 295.284 217.049 295.583 217.228C295.884 217.407 296.134 217.677 296.333 218.039C296.532 218.4 296.632 218.884 296.632 219.49V224.521H295.458V223.487H295.399C295.319 223.653 295.186 223.83 295.001 224.019C294.815 224.208 294.568 224.369 294.26 224.502C293.952 224.634 293.576 224.7 293.132 224.7ZM293.311 223.646C293.775 223.646 294.166 223.555 294.484 223.373C294.805 223.191 295.047 222.955 295.21 222.667C295.375 222.379 295.458 222.075 295.458 221.757V220.683C295.409 220.743 295.299 220.798 295.13 220.847C294.964 220.894 294.772 220.935 294.553 220.972C294.338 221.005 294.128 221.035 293.922 221.061C293.72 221.084 293.556 221.104 293.43 221.121C293.125 221.161 292.84 221.225 292.575 221.315C292.313 221.401 292.101 221.532 291.938 221.708C291.779 221.88 291.7 222.115 291.7 222.414C291.7 222.821 291.851 223.129 292.152 223.338C292.457 223.544 292.843 223.646 293.311 223.646ZM298.773 224.521V216.885H299.907V218.039H299.986C300.125 217.661 300.377 217.354 300.742 217.119C301.106 216.883 301.517 216.766 301.975 216.766C302.061 216.766 302.169 216.767 302.298 216.771C302.427 216.774 302.525 216.779 302.591 216.786V217.979C302.551 217.969 302.46 217.954 302.318 217.934C302.179 217.911 302.031 217.899 301.875 217.899C301.504 217.899 301.173 217.977 300.881 218.133C300.593 218.285 300.364 218.498 300.195 218.769C300.029 219.038 299.946 219.344 299.946 219.689V224.521H298.773ZM93.0095 241.7C92.5256 241.7 92.0864 241.609 91.692 241.427C91.2976 241.241 90.9844 240.975 90.7524 240.627C90.5204 240.275 90.4044 239.851 90.4044 239.354C90.4044 238.916 90.4906 238.562 90.6629 238.29C90.8353 238.015 91.0656 237.799 91.354 237.644C91.6423 237.488 91.9605 237.372 92.3085 237.296C92.6598 237.216 93.0128 237.153 93.3675 237.107C93.8315 237.047 94.2077 237.002 94.496 236.972C94.7877 236.939 94.9998 236.885 95.1324 236.808C95.2683 236.732 95.3362 236.6 95.3362 236.411V236.371C95.3362 235.88 95.202 235.499 94.9335 235.227C94.6684 234.956 94.2657 234.82 93.7254 234.82C93.1653 234.82 92.7261 234.942 92.4079 235.188C92.0898 235.433 91.866 235.695 91.7368 235.973L90.6231 235.575C90.822 235.111 91.0872 234.75 91.4186 234.492C91.7533 234.23 92.1179 234.048 92.5123 233.945C92.9101 233.839 93.3012 233.786 93.6856 233.786C93.9309 233.786 94.2126 233.816 94.5308 233.875C94.8523 233.932 95.1622 234.049 95.4605 234.228C95.7621 234.407 96.0123 234.677 96.2112 235.039C96.4101 235.4 96.5095 235.884 96.5095 236.49V241.521H95.3362V240.487H95.2765C95.197 240.653 95.0644 240.83 94.8788 241.019C94.6932 241.208 94.4463 241.369 94.1381 241.502C93.8298 241.634 93.4536 241.7 93.0095 241.7ZM93.1885 240.646C93.6525 240.646 94.0436 240.555 94.3618 240.373C94.6833 240.191 94.9252 239.955 95.0876 239.667C95.2533 239.379 95.3362 239.075 95.3362 238.757V237.683C95.2865 237.743 95.1771 237.798 95.0081 237.847C94.8424 237.894 94.6501 237.935 94.4314 237.972C94.2159 238.005 94.0055 238.035 93.8 238.061C93.5978 238.084 93.4337 238.104 93.3078 238.121C93.0029 238.161 92.7178 238.225 92.4527 238.315C92.1908 238.401 91.9787 238.532 91.8163 238.708C91.6572 238.88 91.5777 239.115 91.5777 239.414C91.5777 239.821 91.7285 240.129 92.0301 240.338C92.335 240.544 92.7211 240.646 93.1885 240.646ZM102.052 233.885V234.879H97.9351V233.885H102.052ZM99.1681 241.521V232.831C99.1681 232.394 99.2708 232.029 99.4763 231.737C99.6818 231.446 99.9486 231.227 100.277 231.081C100.605 230.935 100.951 230.862 101.316 230.862C101.604 230.862 101.839 230.886 102.022 230.932C102.204 230.978 102.34 231.021 102.429 231.061L102.091 232.075C102.032 232.056 101.949 232.031 101.843 232.001C101.74 231.971 101.604 231.956 101.435 231.956C101.047 231.956 100.767 232.054 100.595 232.249C100.426 232.445 100.341 232.732 100.341 233.11V241.521H99.1681ZM107.017 233.885V234.879H103.06V233.885H107.017ZM104.213 232.056H105.386V239.334C105.386 239.665 105.434 239.914 105.53 240.08C105.63 240.242 105.756 240.352 105.908 240.408C106.064 240.461 106.228 240.487 106.4 240.487C106.53 240.487 106.636 240.481 106.719 240.468C106.802 240.451 106.868 240.438 106.918 240.428L107.156 241.482C107.077 241.512 106.966 241.541 106.823 241.571C106.681 241.604 106.5 241.621 106.281 241.621C105.95 241.621 105.625 241.55 105.307 241.407C104.992 241.265 104.73 241.048 104.521 240.756C104.316 240.464 104.213 240.096 104.213 239.652V232.056ZM111.902 241.681C111.166 241.681 110.531 241.518 109.997 241.193C109.467 240.865 109.058 240.408 108.769 239.821C108.484 239.231 108.342 238.545 108.342 237.763C108.342 236.981 108.484 236.291 108.769 235.695C109.058 235.095 109.459 234.628 109.973 234.293C110.49 233.955 111.093 233.786 111.782 233.786C112.18 233.786 112.573 233.852 112.96 233.985C113.348 234.117 113.701 234.333 114.019 234.631C114.338 234.926 114.591 235.317 114.78 235.804C114.969 236.291 115.063 236.891 115.063 237.604V238.101H109.177V237.087H113.87C113.87 236.656 113.784 236.271 113.612 235.933C113.443 235.595 113.201 235.329 112.886 235.133C112.574 234.937 112.206 234.84 111.782 234.84C111.315 234.84 110.911 234.956 110.569 235.188C110.231 235.416 109.971 235.715 109.789 236.083C109.606 236.45 109.515 236.845 109.515 237.266V237.942C109.515 238.519 109.615 239.008 109.813 239.409C110.016 239.806 110.296 240.11 110.654 240.318C111.012 240.524 111.428 240.627 111.902 240.627C112.21 240.627 112.488 240.584 112.737 240.497C112.989 240.408 113.206 240.275 113.388 240.1C113.57 239.921 113.711 239.699 113.811 239.433L114.944 239.752C114.825 240.136 114.624 240.474 114.343 240.766C114.061 241.054 113.713 241.28 113.299 241.442C112.884 241.601 112.419 241.681 111.902 241.681ZM116.848 241.521V233.885H117.982V235.039H118.061C118.201 234.661 118.452 234.354 118.817 234.119C119.182 233.883 119.593 233.766 120.05 233.766C120.136 233.766 120.244 233.767 120.373 233.771C120.502 233.774 120.6 233.779 120.666 233.786V234.979C120.627 234.969 120.536 234.954 120.393 234.934C120.254 234.911 120.106 234.899 119.951 234.899C119.579 234.899 119.248 234.977 118.956 235.133C118.668 235.285 118.439 235.498 118.27 235.769C118.104 236.038 118.022 236.344 118.022 236.689V241.521H116.848ZM128.242 241.7C127.758 241.7 127.319 241.609 126.924 241.427C126.53 241.241 126.217 240.975 125.985 240.627C125.753 240.275 125.637 239.851 125.637 239.354C125.637 238.916 125.723 238.562 125.895 238.29C126.068 238.015 126.298 237.799 126.586 237.644C126.875 237.488 127.193 237.372 127.541 237.296C127.892 237.216 128.245 237.153 128.6 237.107C129.064 237.047 129.44 237.002 129.728 236.972C130.02 236.939 130.232 236.885 130.365 236.808C130.501 236.732 130.569 236.6 130.569 236.411V236.371C130.569 235.88 130.434 235.499 130.166 235.227C129.901 234.956 129.498 234.82 128.958 234.82C128.398 234.82 127.959 234.942 127.64 235.188C127.322 235.433 127.098 235.695 126.969 235.973L125.856 235.575C126.054 235.111 126.32 234.75 126.651 234.492C126.986 234.23 127.35 234.048 127.745 233.945C128.142 233.839 128.534 233.786 128.918 233.786C129.163 233.786 129.445 233.816 129.763 233.875C130.085 233.932 130.395 234.049 130.693 234.228C130.995 234.407 131.245 234.677 131.444 235.039C131.642 235.4 131.742 235.884 131.742 236.49V241.521H130.569V240.487H130.509C130.429 240.653 130.297 240.83 130.111 241.019C129.926 241.208 129.679 241.369 129.37 241.502C129.062 241.634 128.686 241.7 128.242 241.7ZM128.421 240.646C128.885 240.646 129.276 240.555 129.594 240.373C129.916 240.191 130.158 239.955 130.32 239.667C130.486 239.379 130.569 239.075 130.569 238.757V237.683C130.519 237.743 130.41 237.798 130.241 237.847C130.075 237.894 129.883 237.935 129.664 237.972C129.448 238.005 129.238 238.035 129.032 238.061C128.83 238.084 128.666 238.104 128.54 238.121C128.235 238.161 127.95 238.225 127.685 238.315C127.423 238.401 127.211 238.532 127.049 238.708C126.89 238.88 126.81 239.115 126.81 239.414C126.81 239.821 126.961 240.129 127.263 240.338C127.567 240.544 127.954 240.646 128.421 240.646ZM139.551 241.521L137.224 233.885H138.457L140.108 239.732H140.187L141.818 233.885H143.071L144.682 239.712H144.761L146.412 233.885H147.645L145.318 241.521H144.165L142.494 235.655H142.375L140.704 241.521H139.551ZM152.138 241.681C151.402 241.681 150.767 241.518 150.234 241.193C149.703 240.865 149.294 240.408 149.006 239.821C148.721 239.231 148.578 238.545 148.578 237.763C148.578 236.981 148.721 236.291 149.006 235.695C149.294 235.095 149.695 234.628 150.209 234.293C150.726 233.955 151.329 233.786 152.019 233.786C152.416 233.786 152.809 233.852 153.197 233.985C153.585 234.117 153.938 234.333 154.256 234.631C154.574 234.926 154.828 235.317 155.016 235.804C155.205 236.291 155.3 236.891 155.3 237.604V238.101H149.413V237.087H154.107C154.107 236.656 154.02 236.271 153.848 235.933C153.679 235.595 153.437 235.329 153.122 235.133C152.811 234.937 152.443 234.84 152.019 234.84C151.551 234.84 151.147 234.956 150.805 235.188C150.467 235.416 150.207 235.715 150.025 236.083C149.843 236.45 149.752 236.845 149.752 237.266V237.942C149.752 238.519 149.851 239.008 150.05 239.409C150.252 239.806 150.532 240.11 150.89 240.318C151.248 240.524 151.664 240.627 152.138 240.627C152.446 240.627 152.725 240.584 152.973 240.497C153.225 240.408 153.442 240.275 153.624 240.1C153.807 239.921 153.948 239.699 154.047 239.433L155.18 239.752C155.061 240.136 154.861 240.474 154.579 240.766C154.297 241.054 153.949 241.28 153.535 241.442C153.121 241.601 152.655 241.681 152.138 241.681ZM157.244 241.521V231.34H158.417V235.098H158.516C158.603 234.966 158.722 234.797 158.874 234.591C159.03 234.382 159.252 234.197 159.541 234.034C159.832 233.869 160.227 233.786 160.724 233.786C161.367 233.786 161.934 233.946 162.424 234.268C162.915 234.589 163.297 235.045 163.573 235.635C163.848 236.225 163.985 236.921 163.985 237.723C163.985 238.532 163.848 239.233 163.573 239.826C163.297 240.416 162.916 240.874 162.429 241.198C161.942 241.52 161.38 241.681 160.744 241.681C160.253 241.681 159.86 241.599 159.565 241.437C159.27 241.271 159.043 241.084 158.884 240.875C158.725 240.663 158.603 240.487 158.516 240.348H158.377V241.521H157.244ZM158.397 237.703C158.397 238.28 158.482 238.789 158.651 239.23C158.82 239.667 159.067 240.01 159.391 240.259C159.716 240.504 160.114 240.627 160.585 240.627C161.075 240.627 161.484 240.497 161.813 240.239C162.144 239.977 162.393 239.626 162.558 239.185C162.727 238.741 162.812 238.247 162.812 237.703C162.812 237.166 162.729 236.682 162.563 236.252C162.401 235.817 162.154 235.474 161.823 235.222C161.494 234.967 161.082 234.84 160.585 234.84C160.107 234.84 159.706 234.961 159.381 235.203C159.057 235.441 158.811 235.776 158.646 236.207C158.48 236.634 158.397 237.133 158.397 237.703ZM171.965 241.7C171.481 241.7 171.042 241.609 170.647 241.427C170.253 241.241 169.939 240.975 169.707 240.627C169.475 240.275 169.359 239.851 169.359 239.354C169.359 238.916 169.446 238.562 169.618 238.29C169.79 238.015 170.021 237.799 170.309 237.644C170.597 237.488 170.916 237.372 171.264 237.296C171.615 237.216 171.968 237.153 172.323 237.107C172.787 237.047 173.163 237.002 173.451 236.972C173.743 236.939 173.955 236.885 174.087 236.808C174.223 236.732 174.291 236.6 174.291 236.411V236.371C174.291 235.88 174.157 235.499 173.889 235.227C173.623 234.956 173.221 234.82 172.68 234.82C172.12 234.82 171.681 234.942 171.363 235.188C171.045 235.433 170.821 235.695 170.692 235.973L169.578 235.575C169.777 235.111 170.042 234.75 170.374 234.492C170.708 234.23 171.073 234.048 171.467 233.945C171.865 233.839 172.256 233.786 172.641 233.786C172.886 233.786 173.168 233.816 173.486 233.875C173.807 233.932 174.117 234.049 174.416 234.228C174.717 234.407 174.967 234.677 175.166 235.039C175.365 235.4 175.465 235.884 175.465 236.49V241.521H174.291V240.487H174.232C174.152 240.653 174.02 240.83 173.834 241.019C173.648 241.208 173.401 241.369 173.093 241.502C172.785 241.634 172.409 241.7 171.965 241.7ZM172.144 240.646C172.608 240.646 172.999 240.555 173.317 240.373C173.638 240.191 173.88 239.955 174.043 239.667C174.208 239.379 174.291 239.075 174.291 238.757V237.683C174.242 237.743 174.132 237.798 173.963 237.847C173.797 237.894 173.605 237.935 173.386 237.972C173.171 238.005 172.961 238.035 172.755 238.061C172.553 238.084 172.389 238.104 172.263 238.121C171.958 238.161 171.673 238.225 171.408 238.315C171.146 238.401 170.934 238.532 170.771 238.708C170.612 238.88 170.533 239.115 170.533 239.414C170.533 239.821 170.684 240.129 170.985 240.338C171.29 240.544 171.676 240.646 172.144 240.646ZM180.49 241.681C179.853 241.681 179.291 241.52 178.804 241.198C178.317 240.874 177.936 240.416 177.661 239.826C177.386 239.233 177.248 238.532 177.248 237.723C177.248 236.921 177.386 236.225 177.661 235.635C177.936 235.045 178.319 234.589 178.809 234.268C179.3 233.946 179.867 233.786 180.509 233.786C181.007 233.786 181.399 233.869 181.688 234.034C181.979 234.197 182.201 234.382 182.354 234.591C182.51 234.797 182.631 234.966 182.717 235.098H182.816V231.34H183.99V241.521H182.856V240.348H182.717C182.631 240.487 182.508 240.663 182.349 240.875C182.19 241.084 181.963 241.271 181.668 241.437C181.373 241.599 180.98 241.681 180.49 241.681ZM180.649 240.627C181.119 240.627 181.517 240.504 181.842 240.259C182.167 240.01 182.414 239.667 182.583 239.23C182.752 238.789 182.836 238.28 182.836 237.703C182.836 237.133 182.753 236.634 182.588 236.207C182.422 235.776 182.177 235.441 181.852 235.203C181.527 234.961 181.126 234.84 180.649 234.84C180.152 234.84 179.737 234.967 179.406 235.222C179.078 235.474 178.831 235.817 178.665 236.252C178.503 236.682 178.421 237.166 178.421 237.703C178.421 238.247 178.504 238.741 178.67 239.185C178.839 239.626 179.088 239.977 179.416 240.239C179.747 240.497 180.158 240.627 180.649 240.627ZM189.185 241.681C188.549 241.681 187.987 241.52 187.5 241.198C187.012 240.874 186.631 240.416 186.356 239.826C186.081 239.233 185.943 238.532 185.943 237.723C185.943 236.921 186.081 236.225 186.356 235.635C186.631 235.045 187.014 234.589 187.505 234.268C187.995 233.946 188.562 233.786 189.205 233.786C189.702 233.786 190.095 233.869 190.383 234.034C190.675 234.197 190.897 234.382 191.049 234.591C191.205 234.797 191.326 234.966 191.412 235.098H191.512V231.34H192.685V241.521H191.551V240.348H191.412C191.326 240.487 191.203 240.663 191.044 240.875C190.885 241.084 190.658 241.271 190.363 241.437C190.068 241.599 189.675 241.681 189.185 241.681ZM189.344 240.627C189.815 240.627 190.212 240.504 190.537 240.259C190.862 240.01 191.109 239.667 191.278 239.23C191.447 238.789 191.532 238.28 191.532 237.703C191.532 237.133 191.449 236.634 191.283 236.207C191.117 235.776 190.872 235.441 190.547 235.203C190.222 234.961 189.821 234.84 189.344 234.84C188.847 234.84 188.433 234.967 188.101 235.222C187.773 235.474 187.526 235.817 187.36 236.252C187.198 236.682 187.117 237.166 187.117 237.703C187.117 238.247 187.2 238.741 187.365 239.185C187.534 239.626 187.783 239.977 188.111 240.239C188.443 240.497 188.853 240.627 189.344 240.627ZM194.997 241.521V233.885H196.13V235.039H196.21C196.349 234.661 196.601 234.354 196.965 234.119C197.33 233.883 197.741 233.766 198.198 233.766C198.285 233.766 198.392 233.767 198.522 233.771C198.651 233.774 198.749 233.779 198.815 233.786V234.979C198.775 234.969 198.684 234.954 198.541 234.934C198.402 234.911 198.255 234.899 198.099 234.899C197.728 234.899 197.396 234.977 197.105 235.133C196.816 235.285 196.588 235.498 196.419 235.769C196.253 236.038 196.17 236.344 196.17 236.689V241.521H194.997ZM203.175 241.681C202.439 241.681 201.804 241.518 201.271 241.193C200.741 240.865 200.331 240.408 200.043 239.821C199.758 239.231 199.615 238.545 199.615 237.763C199.615 236.981 199.758 236.291 200.043 235.695C200.331 235.095 200.732 234.628 201.246 234.293C201.763 233.955 202.366 233.786 203.056 233.786C203.453 233.786 203.846 233.852 204.234 233.985C204.622 234.117 204.975 234.333 205.293 234.631C205.611 234.926 205.865 235.317 206.054 235.804C206.242 236.291 206.337 236.891 206.337 237.604V238.101H200.451V237.087H205.144C205.144 236.656 205.058 236.271 204.885 235.933C204.716 235.595 204.474 235.329 204.159 235.133C203.848 234.937 203.48 234.84 203.056 234.84C202.588 234.84 202.184 234.956 201.843 235.188C201.505 235.416 201.244 235.715 201.062 236.083C200.88 236.45 200.789 236.845 200.789 237.266V237.942C200.789 238.519 200.888 239.008 201.087 239.409C201.289 239.806 201.569 240.11 201.927 240.318C202.285 240.524 202.701 240.627 203.175 240.627C203.483 240.627 203.762 240.584 204.01 240.497C204.262 240.408 204.479 240.275 204.661 240.1C204.844 239.921 204.985 239.699 205.084 239.433L206.218 239.752C206.098 240.136 205.898 240.474 205.616 240.766C205.334 241.054 204.986 241.28 204.572 241.442C204.158 241.601 203.692 241.681 203.175 241.681ZM213.531 235.595L212.477 235.894C212.411 235.718 212.313 235.547 212.184 235.382C212.058 235.213 211.885 235.073 211.666 234.964C211.448 234.855 211.168 234.8 210.826 234.8C210.359 234.8 209.969 234.908 209.658 235.123C209.35 235.335 209.196 235.605 209.196 235.933C209.196 236.225 209.302 236.455 209.514 236.624C209.726 236.794 210.057 236.934 210.508 237.047L211.642 237.325C212.324 237.491 212.833 237.745 213.168 238.086C213.503 238.424 213.67 238.86 213.67 239.394C213.67 239.831 213.544 240.222 213.292 240.567C213.044 240.912 212.696 241.183 212.248 241.382C211.801 241.581 211.28 241.681 210.687 241.681C209.908 241.681 209.264 241.512 208.753 241.173C208.243 240.835 207.92 240.342 207.784 239.692L208.897 239.414C209.003 239.825 209.204 240.133 209.499 240.338C209.797 240.544 210.187 240.646 210.667 240.646C211.214 240.646 211.648 240.53 211.97 240.298C212.295 240.063 212.457 239.781 212.457 239.453C212.457 239.188 212.364 238.966 212.179 238.787C211.993 238.605 211.708 238.469 211.323 238.379L210.051 238.081C209.351 237.915 208.838 237.659 208.509 237.311C208.185 236.959 208.022 236.52 208.022 235.993C208.022 235.562 208.143 235.181 208.385 234.85C208.63 234.518 208.964 234.258 209.384 234.069C209.809 233.88 210.289 233.786 210.826 233.786C211.582 233.786 212.175 233.951 212.606 234.283C213.04 234.614 213.349 235.052 213.531 235.595ZM220.845 235.595L219.791 235.894C219.725 235.718 219.627 235.547 219.498 235.382C219.372 235.213 219.2 235.073 218.981 234.964C218.762 234.855 218.482 234.8 218.141 234.8C217.673 234.8 217.284 234.908 216.972 235.123C216.664 235.335 216.51 235.605 216.51 235.933C216.51 236.225 216.616 236.455 216.828 236.624C217.04 236.794 217.372 236.934 217.823 237.047L218.956 237.325C219.639 237.491 220.148 237.745 220.482 238.086C220.817 238.424 220.984 238.86 220.984 239.394C220.984 239.831 220.859 240.222 220.607 240.567C220.358 240.912 220.01 241.183 219.563 241.382C219.115 241.581 218.595 241.681 218.002 241.681C217.223 241.681 216.578 241.512 216.068 241.173C215.557 240.835 215.234 240.342 215.098 239.692L216.212 239.414C216.318 239.825 216.518 240.133 216.813 240.338C217.112 240.544 217.501 240.646 217.982 240.646C218.528 240.646 218.963 240.53 219.284 240.298C219.609 240.063 219.771 239.781 219.771 239.453C219.771 239.188 219.679 238.966 219.493 238.787C219.307 238.605 219.022 238.469 218.638 238.379L217.365 238.081C216.666 237.915 216.152 237.659 215.824 237.311C215.499 236.959 215.337 236.52 215.337 235.993C215.337 235.562 215.458 235.181 215.7 234.85C215.945 234.518 216.278 234.258 216.699 234.069C217.123 233.88 217.604 233.786 218.141 233.786C218.896 233.786 219.49 233.951 219.921 234.283C220.355 234.614 220.663 235.052 220.845 235.595ZM226.688 241.521V233.885H227.861V241.521H226.688ZM227.285 232.612C227.056 232.612 226.859 232.535 226.693 232.379C226.531 232.223 226.449 232.036 226.449 231.817C226.449 231.598 226.531 231.411 226.693 231.255C226.859 231.099 227.056 231.021 227.285 231.021C227.513 231.021 227.709 231.099 227.871 231.255C228.037 231.411 228.12 231.598 228.12 231.817C228.12 232.036 228.037 232.223 227.871 232.379C227.709 232.535 227.513 232.612 227.285 232.612ZM235.419 235.595L234.366 235.894C234.299 235.718 234.201 235.547 234.072 235.382C233.946 235.213 233.774 235.073 233.555 234.964C233.336 234.855 233.056 234.8 232.715 234.8C232.248 234.8 231.858 234.908 231.547 235.123C231.238 235.335 231.084 235.605 231.084 235.933C231.084 236.225 231.19 236.455 231.402 236.624C231.615 236.794 231.946 236.934 232.397 237.047L233.53 237.325C234.213 237.491 234.722 237.745 235.057 238.086C235.391 238.424 235.559 238.86 235.559 239.394C235.559 239.831 235.433 240.222 235.181 240.567C234.932 240.912 234.584 241.183 234.137 241.382C233.689 241.581 233.169 241.681 232.576 241.681C231.797 241.681 231.152 241.512 230.642 241.173C230.131 240.835 229.808 240.342 229.672 239.692L230.786 239.414C230.892 239.825 231.093 240.133 231.388 240.338C231.686 240.544 232.075 240.646 232.556 240.646C233.103 240.646 233.537 240.53 233.858 240.298C234.183 240.063 234.346 239.781 234.346 239.453C234.346 239.188 234.253 238.966 234.067 238.787C233.882 238.605 233.597 238.469 233.212 238.379L231.939 238.081C231.24 237.915 230.726 237.659 230.398 237.311C230.073 236.959 229.911 236.52 229.911 235.993C229.911 235.562 230.032 235.181 230.274 234.85C230.519 234.518 230.852 234.258 231.273 234.069C231.697 233.88 232.178 233.786 232.715 233.786C233.471 233.786 234.064 233.951 234.495 234.283C234.929 234.614 235.237 235.052 235.419 235.595ZM243.509 241.7C243.026 241.7 242.586 241.609 242.192 241.427C241.798 241.241 241.484 240.975 241.252 240.627C241.02 240.275 240.904 239.851 240.904 239.354C240.904 238.916 240.991 238.562 241.163 238.29C241.335 238.015 241.566 237.799 241.854 237.644C242.142 237.488 242.46 237.372 242.809 237.296C243.16 237.216 243.513 237.153 243.867 237.107C244.331 237.047 244.708 237.002 244.996 236.972C245.288 236.939 245.5 236.885 245.632 236.808C245.768 236.732 245.836 236.6 245.836 236.411V236.371C245.836 235.88 245.702 235.499 245.434 235.227C245.168 234.956 244.766 234.82 244.225 234.82C243.665 234.82 243.226 234.942 242.908 235.188C242.59 235.433 242.366 235.695 242.237 235.973L241.123 235.575C241.322 235.111 241.587 234.75 241.919 234.492C242.253 234.23 242.618 234.048 243.012 233.945C243.41 233.839 243.801 233.786 244.186 233.786C244.431 233.786 244.713 233.816 245.031 233.875C245.352 233.932 245.662 234.049 245.96 234.228C246.262 234.407 246.512 234.677 246.711 235.039C246.91 235.4 247.009 235.884 247.009 236.49V241.521H245.836V240.487H245.777C245.697 240.653 245.564 240.83 245.379 241.019C245.193 241.208 244.946 241.369 244.638 241.502C244.33 241.634 243.954 241.7 243.509 241.7ZM243.688 240.646C244.152 240.646 244.544 240.555 244.862 240.373C245.183 240.191 245.425 239.955 245.588 239.667C245.753 239.379 245.836 239.075 245.836 238.757V237.683C245.786 237.743 245.677 237.798 245.508 237.847C245.342 237.894 245.15 237.935 244.931 237.972C244.716 238.005 244.505 238.035 244.3 238.061C244.098 238.084 243.934 238.104 243.808 238.121C243.503 238.161 243.218 238.225 242.953 238.315C242.691 238.401 242.479 238.532 242.316 238.708C242.157 238.88 242.078 239.115 242.078 239.414C242.078 239.821 242.228 240.129 242.53 240.338C242.835 240.544 243.221 240.646 243.688 240.646ZM252.035 241.681C251.398 241.681 250.836 241.52 250.349 241.198C249.862 240.874 249.481 240.416 249.206 239.826C248.931 239.233 248.793 238.532 248.793 237.723C248.793 236.921 248.931 236.225 249.206 235.635C249.481 235.045 249.864 234.589 250.354 234.268C250.845 233.946 251.411 233.786 252.054 233.786C252.552 233.786 252.944 233.869 253.233 234.034C253.524 234.197 253.746 234.382 253.899 234.591C254.055 234.797 254.176 234.966 254.262 235.098H254.361V231.34H255.535V241.521H254.401V240.348H254.262C254.176 240.487 254.053 240.663 253.894 240.875C253.735 241.084 253.508 241.271 253.213 241.437C252.918 241.599 252.525 241.681 252.035 241.681ZM252.194 240.627C252.664 240.627 253.062 240.504 253.387 240.259C253.712 240.01 253.959 239.667 254.128 239.23C254.297 238.789 254.381 238.28 254.381 237.703C254.381 237.133 254.298 236.634 254.133 236.207C253.967 235.776 253.722 235.441 253.397 235.203C253.072 234.961 252.671 234.84 252.194 234.84C251.696 234.84 251.282 234.967 250.951 235.222C250.623 235.474 250.376 235.817 250.21 236.252C250.048 236.682 249.966 237.166 249.966 237.703C249.966 238.247 250.049 238.741 250.215 239.185C250.384 239.626 250.633 239.977 250.961 240.239C251.292 240.497 251.703 240.627 252.194 240.627ZM260.73 241.681C260.093 241.681 259.532 241.52 259.044 241.198C258.557 240.874 258.176 240.416 257.901 239.826C257.626 239.233 257.488 238.532 257.488 237.723C257.488 236.921 257.626 236.225 257.901 235.635C258.176 235.045 258.559 234.589 259.049 234.268C259.54 233.946 260.107 233.786 260.75 233.786C261.247 233.786 261.64 233.869 261.928 234.034C262.22 234.197 262.442 234.382 262.594 234.591C262.75 234.797 262.871 234.966 262.957 235.098H263.057V231.34H264.23V241.521H263.096V240.348H262.957C262.871 240.487 262.748 240.663 262.589 240.875C262.43 241.084 262.203 241.271 261.908 241.437C261.613 241.599 261.22 241.681 260.73 241.681ZM260.889 240.627C261.36 240.627 261.757 240.504 262.082 240.259C262.407 240.01 262.654 239.667 262.823 239.23C262.992 238.789 263.076 238.28 263.076 237.703C263.076 237.133 262.994 236.634 262.828 236.207C262.662 235.776 262.417 235.441 262.092 235.203C261.767 234.961 261.366 234.84 260.889 234.84C260.392 234.84 259.977 234.967 259.646 235.222C259.318 235.474 259.071 235.817 258.905 236.252C258.743 236.682 258.662 237.166 258.662 237.703C258.662 238.247 258.745 238.741 258.91 239.185C259.079 239.626 259.328 239.977 259.656 240.239C259.987 240.497 260.398 240.627 260.889 240.627ZM269.743 241.681C269.008 241.681 268.373 241.518 267.839 241.193C267.309 240.865 266.9 240.408 266.611 239.821C266.326 239.231 266.184 238.545 266.184 237.763C266.184 236.981 266.326 236.291 266.611 235.695C266.9 235.095 267.301 234.628 267.814 234.293C268.331 233.955 268.935 233.786 269.624 233.786C270.022 233.786 270.415 233.852 270.802 233.985C271.19 234.117 271.543 234.333 271.861 234.631C272.179 234.926 272.433 235.317 272.622 235.804C272.811 236.291 272.905 236.891 272.905 237.604V238.101H267.019V237.087H271.712C271.712 236.656 271.626 236.271 271.454 235.933C271.285 235.595 271.043 235.329 270.728 235.133C270.416 234.937 270.048 234.84 269.624 234.84C269.157 234.84 268.752 234.956 268.411 235.188C268.073 235.416 267.813 235.715 267.63 236.083C267.448 236.45 267.357 236.845 267.357 237.266V237.942C267.357 238.519 267.456 239.008 267.655 239.409C267.857 239.806 268.138 240.11 268.495 240.318C268.853 240.524 269.269 240.627 269.743 240.627C270.052 240.627 270.33 240.584 270.579 240.497C270.83 240.408 271.048 240.275 271.23 240.1C271.412 239.921 271.553 239.699 271.652 239.433L272.786 239.752C272.667 240.136 272.466 240.474 272.184 240.766C271.903 241.054 271.555 241.28 271.14 241.442C270.726 241.601 270.26 241.681 269.743 241.681ZM277.574 241.681C276.937 241.681 276.375 241.52 275.888 241.198C275.401 240.874 275.02 240.416 274.745 239.826C274.47 239.233 274.332 238.532 274.332 237.723C274.332 236.921 274.47 236.225 274.745 235.635C275.02 235.045 275.403 234.589 275.893 234.268C276.384 233.946 276.95 233.786 277.593 233.786C278.091 233.786 278.483 233.869 278.772 234.034C279.063 234.197 279.285 234.382 279.438 234.591C279.594 234.797 279.715 234.966 279.801 235.098H279.9V231.34H281.074V241.521H279.94V240.348H279.801C279.715 240.487 279.592 240.663 279.433 240.875C279.274 241.084 279.047 241.271 278.752 241.437C278.457 241.599 278.064 241.681 277.574 241.681ZM277.733 240.627C278.203 240.627 278.601 240.504 278.926 240.259C279.251 240.01 279.498 239.667 279.667 239.23C279.836 238.789 279.92 238.28 279.92 237.703C279.92 237.133 279.837 236.634 279.672 236.207C279.506 235.776 279.261 235.441 278.936 235.203C278.611 234.961 278.21 234.84 277.733 234.84C277.236 234.84 276.821 234.967 276.49 235.222C276.162 235.474 275.915 235.817 275.749 236.252C275.587 236.682 275.505 237.166 275.505 237.703C275.505 238.247 275.588 238.741 275.754 239.185C275.923 239.626 276.172 239.977 276.5 240.239C276.831 240.497 277.242 240.627 277.733 240.627Z" fill="#37393F"/>
<rect x="0.5" y="0.500244" width="374" height="325.613" rx="7.5" stroke="#BBB9B9"/>
</svg>
