<svg width="132" height="47" viewBox="0 0 132 47" fill="none" xmlns="http://www.w3.org/2000/svg">
<path d="M30.1526 27.3697C30.2029 27.7271 30.5101 27.9912 30.8712 27.9876C30.9053 27.9912 30.9412 27.9912 30.9753 27.9876L37.1977 27.0931C37.3863 27.0661 37.5587 26.9655 37.6719 26.8128C37.7868 26.6584 37.8353 26.4661 37.8084 26.2775L37.3737 23.3244C37.3485 23.1358 37.2479 22.9651 37.0934 22.8538C36.9408 22.7388 36.7504 22.6903 36.5618 22.7172L30.3358 23.6118C30.1471 23.6387 29.9747 23.7393 29.8616 23.892C29.7466 24.0465 29.6981 24.2387 29.725 24.4273L30.1526 27.3697ZM36.0517 24.2297L36.2708 25.7602L31.4708 26.4643L31.2661 24.9339L36.0517 24.2297Z" fill="#8FE4FF"/>
<path d="M46.9959 36.2736L46.0726 29.8715C46.0457 29.6829 45.9433 29.5123 45.7906 29.3991C45.6379 29.286 45.4457 29.2375 45.2571 29.2644L42.771 29.6237L39.2862 5.44165C39.2574 5.25303 39.1568 5.08418 39.0059 4.96745C38.8514 4.85428 38.6592 4.80578 38.4706 4.83452L29.6722 6.09554H29.5752L22.4617 7.11945L22.3934 7.13742H22.318L14.3027 8.30504L13.4656 1.61799C13.4386 1.42938 13.338 1.25693 13.1854 1.14379C13.0309 1.02883 12.8387 0.980325 12.65 1.00727L1.62774 2.58085C1.43374 2.606 1.2595 2.70839 1.14273 2.86467C1.02597 3.02095 0.97747 3.21854 1.0098 3.41075L1.42296 7.25611C1.48044 7.64771 1.84329 7.91895 2.23488 7.86326L7.9256 7.04416L11.3386 30.7553C9.20281 31.9301 7.69926 33.9958 7.2412 36.3922C6.78314 38.7867 7.41724 41.2602 8.96925 43.1411C10.5213 45.0219 12.8313 46.1139 15.2688 46.1176C15.6658 46.1176 16.061 46.0888 16.4544 46.0313C17.9723 45.8122 19.3967 45.1709 20.5679 44.1812C21.7391 43.1914 22.6085 41.8926 23.0792 40.4341L46.3773 37.0749C46.5659 37.048 46.7366 36.9474 46.8515 36.7947C46.9647 36.6456 47.0175 36.4587 46.9959 36.2736ZM29.0689 7.62966L30.6748 18.7669L27.9983 17.2006C27.7091 17.0317 27.3408 17.0856 27.1109 17.3299L24.9841 19.586L23.3782 8.44877L29.0689 7.62966ZM21.9554 8.65357L23.7768 21.278C23.8163 21.551 24.0067 21.7756 24.269 21.86C24.3408 21.8816 24.4145 21.8923 24.4881 21.8923C24.6857 21.8923 24.8743 21.8097 25.0091 21.666L27.7646 18.7416L31.2351 20.7678C31.4722 20.9079 31.7704 20.9007 32.0004 20.748C32.2303 20.5936 32.3506 20.3223 32.3129 20.0493L30.4915 7.42486L37.9568 6.34705L41.341 29.8071L21.5566 32.6812C20.4825 31.3932 19.0346 30.4681 17.4143 30.0334L14.4899 9.72801L21.9554 8.65357ZM9.25183 6.13871C9.22309 5.95009 9.12249 5.78124 8.9716 5.66451C8.81891 5.55134 8.62851 5.50463 8.43991 5.53158L2.74919 6.33991L2.54441 3.90286L12.1476 2.53405L15.9271 29.7601C14.8403 29.6739 13.7463 29.8122 12.7152 30.1661L9.25183 6.13871ZM16.2504 44.6085C14.4774 44.8635 12.6775 44.4055 11.2421 43.3331C9.80862 42.2607 8.85837 40.6638 8.60329 38.8908C8.34821 37.1178 8.80628 35.3179 9.87866 33.8825C10.951 32.449 12.548 31.4988 14.321 31.2437C14.6425 31.197 14.9658 31.1736 15.291 31.1718C17.5849 31.179 19.7171 32.3502 20.9546 34.2813C22.1921 36.2123 22.3647 38.6391 21.4144 40.7266C20.4642 42.8121 18.5189 44.2743 16.2504 44.6085ZM23.4103 38.932C23.502 38.2099 23.4948 37.4787 23.3924 36.7584C23.2487 35.7866 22.9343 34.849 22.4619 33.9885L42.2573 31.136L44.7434 30.7767L45.462 35.7561L23.4103 38.932Z" fill="#8FE4FF" stroke="#8FE4FF" stroke-width="0.5"/>
<path d="M30.8162 19.0244L29.2517 7.46262L22.7143 8.44317L24.2788 20.005C24.3343 20.3755 24.7841 20.5349 25.0625 20.2822L27.3516 18.2126L30.1482 19.5194C30.4885 19.6793 30.8718 19.3949 30.8162 19.0244Z" fill="#8FE4FF"/>
<rect x="30.543" y="24.418" width="5.6561" height="2.26244" transform="rotate(-8.06307 30.543 24.418)" fill="#8FE4FF"/>
<circle cx="15.1402" cy="37.9162" r="3.95927" fill="#8FE4FF"/>
<path d="M70.2847 9.536V13.92H64.3327V32H58.8607V13.92H52.9087V9.536H70.2847Z" fill="#8FE4FF"/>
<path d="M71.9429 23.04C71.9429 21.2053 72.2843 19.5947 72.9669 18.208C73.6709 16.8213 74.6203 15.7547 75.8149 15.008C77.0096 14.2613 78.3429 13.888 79.8149 13.888C81.0736 13.888 82.1723 14.144 83.1109 14.656C84.0709 15.168 84.8069 15.84 85.3189 16.672V14.144H90.7909V32H85.3189V29.472C84.7856 30.304 84.0389 30.976 83.0789 31.488C82.1403 32 81.0416 32.256 79.7829 32.256C78.3323 32.256 77.0096 31.8827 75.8149 31.136C74.6203 30.368 73.6709 29.2907 72.9669 27.904C72.2843 26.496 71.9429 24.8747 71.9429 23.04ZM85.3189 23.072C85.3189 21.7067 84.9349 20.6293 84.1669 19.84C83.4203 19.0507 82.5029 18.656 81.4149 18.656C80.3269 18.656 79.3989 19.0507 78.6309 19.84C77.8843 20.608 77.5109 21.6747 77.5109 23.04C77.5109 24.4053 77.8843 25.4933 78.6309 26.304C79.3989 27.0933 80.3269 27.488 81.4149 27.488C82.5029 27.488 83.4203 27.0933 84.1669 26.304C84.9349 25.5147 85.3189 24.4373 85.3189 23.072Z" fill="#8FE4FF"/>
<path d="M100.222 8.32V32H94.7497V8.32H100.222Z" fill="#8FE4FF"/>
<path d="M109.659 8.32V32H104.187V8.32H109.659Z" fill="#8FE4FF"/>
<path d="M131.865 14.144L120.665 40.48H114.777L118.873 31.392L111.609 14.144H117.721L121.849 25.312L125.945 14.144H131.865Z" fill="#8FE4FF"/>
</svg>
